<svg
      xmlns="http://www.w3.org/2000/svg"
      version="1.1"
      viewBox="0 0 379.18 376.76"
    >
      <defs>
        <filter id="filter3894">
          <feGaussianBlur stdDeviation="1.249"></feGaussianBlur>
        </filter>
        <filter id="filter3910">
          <feGaussianBlur stdDeviation="2.511"></feGaussianBlur>
        </filter>
        <filter id="filter3926">
          <feGaussianBlur stdDeviation="0.964"></feGaussianBlur>
        </filter>
        <filter id="filter3942">
          <feGaussianBlur stdDeviation="4.779"></feGaussianBlur>
        </filter>
        <filter
          id="filter4010"
          width="1.432"
          height="1.124"
          x="-0.216"
          y="-0.062"
        >
          <feGaussianBlur stdDeviation="2.708"></feGaussianBlur>
        </filter>
        <filter
          id="filter4014"
          width="1.399"
          height="1.124"
          x="-0.199"
          y="-0.062"
        >
          <feGaussianBlur stdDeviation="2.708"></feGaussianBlur>
        </filter>
        <filter
          id="filter4018"
          width="1.78"
          height="1.141"
          x="-0.39"
          y="-0.071"
        >
          <feGaussianBlur stdDeviation="2.708"></feGaussianBlur>
        </filter>
        <filter
          id="filter4022"
          width="2.017"
          height="1.119"
          x="-0.509"
          y="-0.06"
        >
          <feGaussianBlur stdDeviation="2.708"></feGaussianBlur>
        </filter>
        <filter
          id="filter4050"
          width="1.169"
          height="1.202"
          x="-0.085"
          y="-0.101"
        >
          <feGaussianBlur stdDeviation="1.825"></feGaussianBlur>
        </filter>
        <filter id="filter4054">
          <feGaussianBlur stdDeviation="1.825"></feGaussianBlur>
        </filter>
        <filter
          id="filter4082"
          width="1.053"
          height="1.492"
          x="-0.027"
          y="-0.246"
        >
          <feGaussianBlur stdDeviation="3.027"></feGaussianBlur>
        </filter>
      </defs>
      <g transform="translate(-210.37 -192.27)">
        <path
          fill="#999"
          d="M469.55 603.48a136.58 14.766 0 11-273.17 0 136.58 14.766 0 11273.17 0z"
          filter="url(#filter4082)"
          transform="translate(84.558 -84.649)"
        ></path>
        <path
          fill="#000"
          d="M147.97 268.38c-3.1 2.78-6.92 4.77-11.16 5.65-8.49 30-12.26 52.42-8.53 53.63 3.8 1.23 14.23-19.98 25.19-50.19-.87-2.36-1.38-4.87-1.47-7.5-1.36-.51-2.7-1.04-4.03-1.59zm142.56 3.68c-1.57 7.65-6.79 13.96-13.75 17.06 5.18 23.49 10.55 39.11 13.84 38.6 3.93-.61 3.7-24-.09-55.66zm-39.41 13.06c5.45 25.69 11.22 43.14 14.69 42.6 3.08-.48 3.6-15.02 1.85-36.53-.21 0-.42.03-.63.03-6.11 0-11.67-2.33-15.91-6.1zm-92.24.88c-6.15 23.83-8.53 40.61-5.32 41.66 3.11 1 10.64-13.03 19.28-34.69-5.44-.71-10.3-3.24-13.96-6.97z"
          transform="translate(210.37 192.27)"
        ></path>
        <path
          fill="#999"
          d="M262.41 290.75c.53 11.51.47 19.88-.35 22.5.92 3.61 1.73 5.62 2.38 5.47 1.45-.35 1.62-11.46.72-27.6-.94-.07-1.85-.19-2.75-.37z"
          filter="url(#filter4022)"
          transform="translate(210.37 192.27)"
        ></path>
        <path
          fill="#999"
          d="M287.62 279.56c-.83 1.38-1.82 2.66-2.9 3.85 1.79 15.68 2.09 27.69.62 30.71 1.2 3.05 2.29 4.73 3.13 4.6 2.57-.4 2.12-17.34-.85-39.16z"
          filter="url(#filter4018)"
          transform="translate(210.37 192.27)"
        ></path>
        <path
          fill="#999"
          d="M147.97 268.38c-.45.4-.93.75-1.41 1.12-5.86 19.4-11.91 35.42-15.9 42.47-.58 4.99-.48 8.11.53 8.47 2.28.82 8.34-12.44 14.87-31.78 1.32-5.81 2.96-12.28 4.85-19.13-.99-.38-1.97-.75-2.94-1.15z"
          filter="url(#filter4014)"
          transform="translate(210.37 192.27)"
        ></path>
        <path
          fill="#999"
          d="M164.41 290.19c-3.24 9.86-6.26 17.68-8.53 22.03-.53 4.99-.43 8.11.5 8.47 1.98.77 7.06-10.98 12.68-28.53-1.63-.5-3.19-1.16-4.65-1.97z"
          filter="url(#filter4010)"
          transform="translate(210.37 192.27)"
        ></path>
        <path
          fill="#fff"
          d="M444.12 255.32c-8.836 0-16.556 4.794-20.719 11.906-4.358-6.026-11.433-9.938-19.438-9.938-9.937 0-18.452 6.046-22.094 14.656-4.296-6.474-11.679-10.75-20.031-10.75-12.726 0-23.104 9.914-23.906 22.438a23.914 23.914 0 00-11.344-2.843c-13.249 0-23.969 10.75-23.969 24 0 1.862.192 3.666.594 5.406-12.848.456-23.125 11.009-23.125 23.969 0 7.882 3.787 14.877 9.656 19.25-12.035 1.288-21.406 11.435-21.406 23.812 0 11.426 7.991 20.99 18.688 23.406-3.693 4.22-5.969 9.733-5.969 15.78 0 13.25 10.751 23.97 24 23.97a23.842 23.842 0 0014.344-4.75c-.72 2.28-1.125 4.7-1.125 7.219 0 13.249 10.751 23.969 24 23.969 6.182 0 11.81-2.355 16.062-6.188 1.33.552 2.672 1.085 4.031 1.594.42 12.883 10.985 23.219 23.97 23.219 9.996 0 18.55-6.12 22.155-14.812 3.067 9.717 12.144 16.75 22.875 16.75 11.724 0 21.47-8.384 23.562-19.5 3.406 9.103 12.177 15.594 22.47 15.594 13.25 0 24-10.751 24-24 0-2.484-.393-4.871-1.094-7.125 3.99 2.962 8.961 4.688 14.312 4.688 13.249 0 23.969-10.752 23.969-24a23.854 23.854 0 00-5.907-15.75c10.681-2.427 18.656-11.992 18.656-23.407 0-9.273-5.267-17.32-12.969-21.312 8.224-3.804 13.938-12.125 13.938-21.78 0-12.613-9.73-22.91-22.094-23.876a23.958 23.958 0 001.532-8.437c0-13.249-10.751-23.969-24-23.969-1.862 0-3.667.192-5.407.594-.456-12.848-11.009-23.125-23.969-23.125-3.866 0-7.515.938-10.75 2.562-2.213-10.962-11.885-19.219-23.5-19.219z"
        ></path>
        <path
          fill="#0ff"
          d="M456.25 265.74a22.21 22.21 0 012.855 7.218 23.07 23.07 0 013.532-1.402 22.627 22.627 0 00-6.387-5.816zm32.228 15.548a22.22 22.22 0 013.326 10.901 22.747 22.747 0 015.092-.555c.22 0 .429.023.647.029a22.607 22.607 0 00-9.065-10.375zm27.755 21.129a22.18 22.18 0 013.267 11.631c0 2.776-.514 5.437-1.442 7.89a22.627 22.627 0 018.77 2.514c.128-.961.207-1.927.207-2.922 0-8.094-4.328-15.173-10.802-19.113zm19.337 30.189a22.15 22.15 0 013.296 11.661c0 9.03-5.381 16.812-13.127 20.37a22.609 22.609 0 018.183 7.13c7.385-3.69 12.479-11.25 12.479-20.018 0-8.11-4.34-15.212-10.831-19.142zm-.912 40.272a22.265 22.265 0 013.296 11.69c0 10.675-7.511 19.62-17.571 21.889 3.465 3.943 5.563 9.085 5.563 14.729 0 12.391-10.096 22.445-22.575 22.445-5.04 0-9.722-1.614-13.48-4.384.66 2.108 1.03 4.34 1.03 6.664 0 12.39-10.125 22.445-22.604 22.445a22.562 22.562 0 01-11.714-3.274c3.97 6.44 11.089 10.755 19.249 10.755 12.479 0 22.604-10.054 22.604-22.445 0-2.323-.37-4.555-1.03-6.663 3.758 2.77 8.44 4.384 13.48 4.384 12.479 0 22.575-10.054 22.575-22.445 0-5.644-2.098-10.786-5.563-14.73 10.06-2.268 17.571-11.213 17.571-21.888 0-8.108-4.34-15.23-10.831-19.171zm-252.38 15.255c1.268 2.06 2.832 3.913 4.68 5.465a22.737 22.737 0 012.06-2.718c-2.418-.542-4.685-1.503-6.74-2.747zm37.232 35.479c-3.77 2.8-8.44 4.442-13.51 4.442a22.638 22.638 0 01-11.772-3.273 22.668 22.668 0 0019.308 10.755c1.859 0 3.659-.225 5.386-.643a22.165 22.165 0 01-.471-4.53c0-2.355.381-4.618 1.06-6.75zm36.673 23.38a22.621 22.621 0 01-15.128 5.787 22.638 22.638 0 01-11.773-3.274 22.668 22.668 0 0019.308 10.755c4.852 0 9.329-1.565 13.009-4.15a22.214 22.214 0 01-1.62-7.627c-1.28-.476-2.544-.975-3.796-1.49zm90.975 6.78c-1.971 10.395-11.15 18.236-22.192 18.236a22.652 22.652 0 01-11.743-3.273A22.574 22.574 0 00432.5 479.49c10.264 0 18.91-6.798 21.662-16.103a22.491 22.491 0 01-7.005-9.615zm-43.736 2.572a22.591 22.591 0 01-20.867 13.853 22.584 22.584 0 01-11.743-3.302c3.965 6.458 11.107 10.784 19.278 10.784 8.478 0 15.827-4.655 19.69-11.515-2.913-2.632-5.143-5.998-6.358-9.82z"
          filter="url(#filter3942)"
          transform="matrix(.98728 0 0 .95993 3.591 15.88)"
        ></path>
        <path
          fill="#000"
          d="M444.12 253.53c-8.637 0-16.164 4.372-20.844 10.906-4.727-5.418-11.567-8.938-19.312-8.938-9.67 0-18.059 5.354-22.469 13.25-4.738-5.645-11.727-9.343-19.656-9.343-12.834 0-23.356 9.457-25.312 21.75-3.08-1.3-6.39-2.15-9.94-2.15-14.223 0-25.781 11.56-25.781 25.78 0 1.325.248 2.595.438 3.876-12.88 1.43-22.97 12.248-22.97 25.5 0 7.13 3 13.514 7.688 18.188-11.15 2.838-19.438 12.854-19.438 24.875 0 11.344 7.389 20.932 17.594 24.375-2.986 4.201-4.875 9.266-4.875 14.812 0 14.223 11.592 25.78 25.812 25.78 4.212 0 8.17-1.05 11.688-2.843-.161 1.15-.281 2.304-.281 3.5 0 14.223 11.592 25.78 25.812 25.78 6.23 0 11.888-2.291 16.344-5.968.694.282 1.39.573 2.094.844 1.07 13.249 12.107 23.75 25.625 23.75 9.284 0 17.43-4.932 21.969-12.312 4.238 8.448 12.985 14.25 23.062 14.25 10.91 0 20.243-6.812 24-16.406 4.522 7.462 12.686 12.5 22.03 12.5 14.224 0 25.813-11.59 25.813-25.812 0-1.166-.129-2.284-.282-3.406a25.86 25.86 0 0011.688 2.78c14.223 0 25.781-11.591 25.781-25.811 0-5.524-1.848-10.584-4.812-14.781 10.19-3.452 17.562-13.042 17.562-24.375 0-8.848-4.63-16.48-11.438-21.125 7.414-4.533 12.406-12.66 12.406-21.97 0-12.794-9.417-23.28-21.656-25.28.64-2.247 1.094-4.582 1.094-7.031 0-14.223-11.592-25.75-25.812-25.75-1.324 0-2.595.216-3.875.406-1.43-12.88-12.248-22.938-25.5-22.938-3.408 0-6.588.826-9.563 2.031-3.095-10.777-12.935-18.688-24.688-18.688zm0 3.594c10.761 0 19.672 7.644 21.719 17.78a1.8 1.8 0 002.594 1.25 22.064 22.064 0 019.937-2.374c12.008 0 21.734 9.476 22.156 21.375a1.8 1.8 0 002.22 1.687c1.596-.368 3.261-.53 5-.53 12.278 0 22.187 9.88 22.187 22.155 0 2.748-.494 5.385-1.406 7.813a1.8 1.8 0 001.531 2.437c11.447.894 20.438 10.376 20.438 22.062 0 8.946-5.271 16.638-12.875 20.156a1.8 1.8 0 00-.094 3.219c7.122 3.692 12 11.127 12 19.719 0 10.577-7.376 19.414-17.25 21.656a1.8 1.8 0 00-.937 2.937c3.406 3.904 5.437 8.97 5.437 14.562 0 12.28-9.88 22.22-22.156 22.22-4.964 0-9.565-1.61-13.25-4.344a1.8 1.8 0 00-2.78 1.968c.65 2.092 1 4.3 1 6.594 0 12.276-9.913 22.22-22.189 22.22-9.535 0-17.632-6.022-20.78-14.439a1.8 1.8 0 00-3.47.313c-1.934 10.279-10.916 18.03-21.78 18.03-9.945 0-18.323-6.517-21.157-15.5a1.8 1.8 0 00-3.375-.156c-3.333 8.038-11.238 13.72-20.5 13.72-12.029 0-21.799-9.57-22.188-21.5a1.8 1.8 0 00-1.13-1.63c-1.336-.5-2.655-1.018-3.968-1.563a1.8 1.8 0 00-1.907.312c-3.94 3.55-9.118 5.75-14.844 5.75-12.279 0-22.188-9.911-22.188-22.188 0-2.325.363-4.538 1.032-6.656a1.8 1.8 0 00-2.813-2 21.984 21.984 0 01-13.25 4.406c-12.279 0-22.188-9.911-22.188-22.188 0-5.596 2.078-10.683 5.5-14.594a1.8 1.8 0 00-.937-2.937c-9.888-2.233-17.281-11.07-17.281-21.656 0-11.47 8.642-20.84 19.78-22.031a1.8 1.8 0 00.876-3.219c-5.43-4.045-8.907-10.507-8.907-17.812 0-12.008 9.477-21.734 21.375-22.156a1.8 1.8 0 001.688-2.219c-.369-1.597-.531-3.262-.531-5 0-12.279 9.88-22.188 22.156-22.188 3.799 0 7.378.949 10.5 2.625a1.8 1.8 0 002.625-1.468c.743-11.596 10.334-20.75 22.125-20.75 7.738 0 14.558 3.95 18.53 9.937a1.8 1.8 0 003.157-.281c3.367-7.962 11.23-13.562 20.438-13.562 7.418 0 13.936 3.611 17.969 9.187a1.8 1.8 0 003.031-.156c3.851-6.58 10.971-11 19.156-11z"
          color="#000"
        ></path>
        <path
          fill="#ffe6d5"
          d="M458.89 353.85c5.31 24.786-5.52 40.505-24.189 35.11-18.67-5.395-11.257-31.396-16.567-56.182-5.31-24.786-21.333-38.971-2.664-33.576 18.67 5.395 38.11 29.862 43.42 54.648z"
        ></path>
        <path
          fill="#ffe6d5"
          stroke="#000"
          strokeLinecap="round"
          strokeLinejoin="round"
          strokeWidth="4.255"
          d="M249.94 352.69c-6.543 24.49 3.488 40.731 22.404 36.276 18.916-4.455 12.812-30.794 19.355-55.283 6.543-24.49 23.255-37.856 4.339-33.401-18.916 4.455-39.555 27.919-46.098 52.409z"
        ></path>
        <path
          fill="#ffe6d5"
          d="M413.47 350.49c0 47.59-26.304 68.169-58.752 68.169s-58.752-20.579-58.752-68.169 26.304-104.17 58.752-104.17 58.752 56.579 58.752 104.17z"
        ></path>
        <path
          fill="#000"
          d="M364.9 231.27s18.306-6.73 31.739-1.712 21.22 21.79 21.22 21.79c-2.778 1.795-2.89 4.067-4.388 2.216-5.554-6.868-11.996-12.5-20.092-15.826-6.999-2.874-16.99 6.585-23.989-.625-3.422-3.527-1.224-2.428-4.49-5.843z"
        ></path>
        <path
          fill="#000"
          d="M349.79 259.96s-14.988-12.481-29.326-12.259c-14.338.222-27.3 13.408-27.3 13.408 2.014 2.623 1.359 4.802 3.39 3.56 7.537-4.607 15.494-7.752 24.237-8.17 7.558-.36 13.797 11.904 22.809 7.458 4.407-2.174 1.967-1.876 6.19-3.997z"
        ></path>
        <path
          fill="#ffb380"
          d="M374.95 257.08c17.141 19.213 28.756 54.685 28.756 86.087 0 45.823-24.748 65.656-55.278 65.656-13.983 0-26.754-4.18-36.489-13.089 10.081 11.57 24.388 16.94 40.253 16.94 30.53 0 55.278-19.833 55.278-65.656 0-33.651-13.338-71.955-32.52-89.938z"
          filter="url(#filter3910)"
        ></path>
        <path
          fill="#ffb380"
          d="M435.71 317.96c7.292 8.926 13.181 20.861 15.523 32.879 4.135 21.219-4.32 34.662-18.857 30.043a13.167 13.167 0 01-2.847-1.284c1.568 3.04 3.906 5.273 7.519 6.42 14.536 4.62 22.99-8.824 18.857-30.042-2.826-14.503-10.795-28.894-20.195-38.016z"
          filter="url(#filter3926)"
        ></path>
        <path
          fill="#ffb380"
          d="M295.56 304.43c-.876.009-2.005.194-3.4.503-2.158 5.214-7.017 13.714-9.755 24.746-5.433 21.888-.381 45.426-16.087 49.408-4.909 1.244-9.079.688-12.351-1.34 3.345 5.999 9.395 8.715 17.333 6.702 15.707-3.981 10.655-27.52 16.087-49.408 4.753-19.152 15.965-30.693 8.173-30.61z"
          filter="url(#filter3894)"
        ></path>
        <path
          fill="#fff"
          stroke="#000"
          strokeLinecap="round"
          strokeLinejoin="round"
          strokeWidth="3.6"
          d="M349.822 297.73a33.782 27.907 0 11-67.564 0 33.782 27.907 0 1167.564 0z"
        ></path>
        <path
          fill="#fff"
          stroke="#000"
          strokeLinecap="round"
          strokeLinejoin="round"
          strokeWidth="3.6"
          d="M423.26 299.2a36.23 36.23 0 11-72.46 0 36.23 36.23 0 1172.46 0z"
        ></path>
        <path
          fill="#333"
          d="M336.29 303.99a8.121 8.121 0 11-16.242 0 8.121 8.121 0 0116.242 0z"
        ></path>
        <path
          fill="#333"
          d="M377.64 303.25a8.121 8.121 0 11-16.242 0 8.121 8.121 0 0116.242 0z"
        ></path>
        <path
          fill="#0ff"
          d="M408.55 274.18c4.777 5.686 7.665 13.065 7.665 21.132 0 17.969-14.302 32.526-31.958 32.526-7.93 0-15.176-2.936-20.763-7.802 5.864 6.975 14.567 11.394 24.292 11.394 17.655 0 31.958-14.557 31.958-32.526 0-9.902-4.338-18.757-11.195-24.724z"
          filter="url(#filter4054)"
        ></path>
        <path
          fill="#0ff"
          d="M335.95 278.68c4.395 4.295 7.052 9.87 7.052 15.964 0 13.575-13.158 24.572-29.4 24.572-7.296 0-13.963-2.218-19.103-5.894 5.394 5.269 13.401 8.608 22.35 8.608 16.242 0 29.4-10.997 29.4-24.572 0-7.48-3.991-14.17-10.299-18.678z"
          filter="url(#filter4050)"
        ></path>
        <path
          fill="#fff"
          d="M401.76 395.65c4.295-11.326.262-21.183-7.434-30.159 6.338 1.553 16.178 3.668 14.563 12.829-1.131 6.661-3.929 12.893-7.129 17.33z"
        ></path>
        <path
          fill="#000"
          d="M327.71 385.95c7.07 7.123 15.818 10.406 25.406 10.406 7.022 0 13.593-1.764 19.375-5.5l1.531 2.625c-6.276 4.02-13.402 6-20.906 6-1.111 0-2.218-.039-3.312-.125-.754 7.104-.277 13.206 3.625 17.344l-2.625 2.469c-5.004-5.307-5.382-12.673-4.563-20.25-7.62-1.289-14.673-4.788-20.562-10.625.676-.788 1.358-1.563 2.031-2.344z"
          color="#000"
        ></path>
        <path
          fill="#000"
          d="M389.31 362.41l3.656 4.25c7.475 8.717 11.133 17.691 7.094 28.344l3.156 1.688c3.377-4.682 6.256-11.101 7.438-18.062.46-2.61.11-4.938-.875-6.813s-2.535-3.262-4.25-4.313c-3.431-2.1-7.638-2.98-10.781-3.75l-5.438-1.343zm9.406 6.125c1.795.55 3.537 1.205 4.938 2.063 1.335.817 2.334 1.759 2.937 2.906.603 1.147.879 2.529.531 4.5-.42 2.473-1.133 4.872-1.968 7.156-.335-5.95-2.83-11.472-6.438-16.625z"
          color="#000"
        ></path>
        <path
          fill="#000"
          d="M358.34 458.83a1.8 1.8 0 00-1.219.469 22.17 22.17 0 01-10.312 5.25 1.8 1.8 0 00-1.344 1.25c-4.26 15.043-7.35 28.192-8.906 37.812-.778 4.81-1.166 8.722-1.125 11.656.02 1.467.118 2.69.438 3.75s.934 2.208 2.218 2.625c1.31.425 2.513-.181 3.407-.875s1.695-1.624 2.593-2.844c1.797-2.44 3.843-5.987 6.094-10.5 4.503-9.027 9.849-21.91 15.344-37.062a1.8 1.8 0 000-1.25 22.037 22.037 0 01-1.344-6.938 1.8 1.8 0 00-1.187-1.625c-1.336-.5-2.655-1.017-3.969-1.562a1.8 1.8 0 00-.687-.156zm142.47 3.688a1.8 1.8 0 00-1.656 1.437c-1.457 7.07-6.281 12.913-12.72 15.781a1.8 1.8 0 00-1.03 2.031c2.601 11.787 5.242 21.632 7.687 28.531 1.223 3.45 2.374 6.149 3.531 8.094.58.973 1.152 1.753 1.844 2.375.692.622 1.677 1.176 2.813 1 1.354-.21 2.14-1.266 2.625-2.281.484-1.015.78-2.207 1.03-3.688.504-2.961.74-7.002.72-12-.042-9.995-1.07-23.81-2.97-39.688a1.8 1.8 0 00-1.874-1.593zm-142.25.156c.711.29 1.435.565 2.156.844a25.63 25.63 0 001.25 6.125c-5.39 14.814-10.655 27.478-15 36.188-2.2 4.41-4.18 7.835-5.75 9.968-.773 1.05-1.458 1.74-1.906 2.094-.148-.527-.264-1.425-.281-2.656-.036-2.548.334-6.336 1.094-11.031 1.487-9.2 4.461-21.991 8.562-36.562 3.676-.95 7.024-2.633 9.875-4.969zm141.28 9.219c1.321 12.512 2.154 23.78 2.187 31.906.02 4.882-.185 8.79-.625 11.375-.212 1.248-.483 2.17-.718 2.687-.257-.271-.576-.652-.969-1.312-.937-1.575-2.07-4.142-3.25-7.47-2.265-6.392-4.767-15.727-7.25-26.811 4.497-2.34 8.168-5.953 10.625-10.375zm-38.281 3.687a1.8 1.8 0 00-1.813 2.188c2.731 12.886 5.528 23.72 8.125 31.344 1.3 3.812 2.533 6.795 3.75 8.937.61 1.071 1.193 1.947 1.907 2.625.713.678 1.738 1.28 2.937 1.094 1.064-.166 1.816-.918 2.281-1.656.465-.74.745-1.57 1-2.563.51-1.984.819-4.584.97-7.844.3-6.52-.028-15.603-.907-26.406a1.8 1.8 0 00-1.813-1.656c-.327.01-.526.031-.593.031-5.659 0-10.794-2.131-14.72-5.625a1.8 1.8 0 00-1.124-.468zm-92.312.875a1.8 1.8 0 00-1.75 1.375c-3.086 11.958-5.21 22.13-6.188 29.562-.488 3.717-.709 6.756-.562 9.063.073 1.153.227 2.118.562 3 .336.882.956 1.828 2.063 2.187 1.073.348 2.134-.011 2.906-.5.772-.489 1.447-1.16 2.156-2 1.42-1.68 2.95-4.085 4.657-7.187 3.414-6.205 7.475-15.187 11.812-26.062a1.8 1.8 0 00-1.47-2.438 22.022 22.022 0 01-12.905-6.437 1.8 1.8 0 00-1.281-.563zm1.062 5.094c2.997 2.397 6.533 4.1 10.406 4.969-3.982 9.835-7.71 18.108-10.78 23.688-1.645 2.987-3.113 5.248-4.25 6.593-.447.529-.782.779-1.063 1-.104-.374-.233-.832-.281-1.593-.12-1.88.059-4.755.531-8.344.862-6.553 2.793-15.765 5.437-26.312zm94.031.094a25.508 25.508 0 0012 3.562c.765 9.944 1.054 18.405.782 24.312-.144 3.124-.446 5.576-.844 7.125-.147.573-.302.869-.438 1.156a8.086 8.086 0 01-1.093-1.531c-1.012-1.78-2.21-4.619-3.47-8.312-2.184-6.411-4.57-15.701-6.937-26.312z"
          color="#000"
        ></path>
        <path
          fill="#000"
          d="M328.16 294.06c-5.458 0-9.906 4.48-9.906 9.938s4.448 9.906 9.906 9.906 9.938-4.448 9.938-9.906-4.48-9.938-9.938-9.938zm0 3.594a6.332 6.332 0 016.344 6.344c0 3.512-2.832 6.312-6.344 6.312-3.512 0-6.313-2.8-6.313-6.312s2.8-6.344 6.313-6.344z"
          color="#000"
        ></path>
        <path
          fill="#000"
          d="M369.5 293.34c-5.458 0-9.906 4.448-9.906 9.906s4.448 9.938 9.906 9.938 9.938-4.48 9.938-9.938-4.48-9.906-9.938-9.906zm0 3.594c3.512 0 6.344 2.8 6.344 6.312s-2.832 6.313-6.344 6.313c-3.512 0-6.313-2.8-6.313-6.313s2.8-6.312 6.313-6.312z"
          color="#000"
        ></path>
        <path
          fill="#000"
          d="M316.03 268.02c-19.461 0-35.562 13.129-35.562 29.719s16.102 29.688 35.562 29.688c19.461 0 35.594-13.097 35.594-29.688 0-16.59-16.133-29.719-35.594-29.719zm0 3.594c17.854 0 32 11.89 32 26.125s-14.146 26.094-32 26.094-31.969-11.86-31.969-26.094 14.115-26.125 31.969-26.125z"
          color="#000"
        ></path>
        <path
          fill="#000"
          d="M387.03 261.16c-20.982 0-38.031 17.049-38.031 38.031s17.049 38.031 38.031 38.031 38.031-17.049 38.031-38.031-17.049-38.031-38.031-38.031zm0 3.625c19.037 0 34.438 15.37 34.438 34.406 0 19.037-15.401 34.438-34.438 34.438s-34.438-15.401-34.438-34.438 15.401-34.406 34.438-34.406z"
          color="#000"
        ></path>
        <path
          fill="#000"
          d="M144.34 52.25c-14.33 0-27.13 10.221-37.25 25.344 1.41.048 2.8.157 4.16.344 9.48-13.497 21-22.094 33.09-22.094 9.87 0 19.37 5.727 27.69 15.156 1.47-.188 2.95-.306 4.47-.312-9.19-11.242-20.13-18.438-32.16-18.438zm-57.496 76.37c-1.986 9.87-3.063 19.9-3.063 29.6 0 24.13 6.706 41.66 17.719 53.16 11.01 11.49 26.24 16.81 42.84 16.81 16.61 0 31.83-5.32 42.85-16.81 11.01-11.5 17.72-29.03 17.72-53.16 0-8.49-.84-17.24-2.38-25.91-.99 1.02-2.05 1.95-3.15 2.85 1.26 7.74 1.93 15.52 1.93 23.06 0 23.46-6.46 39.99-16.72 50.69-10.25 10.69-24.4 15.68-40.25 15.68-15.84 0-29.99-4.99-40.25-15.68-10.248-10.7-16.684-27.23-16.684-50.69 0-9.12.991-18.59 2.813-27.94a32.602 32.602 0 01-3.375-1.66z"
          color="#000"
          transform="translate(210.37 192.27)"
        ></path>
        <path
          fill="#000"
          d="M212.88 107.81c-.04 1.58-.18 3.13-.41 4.66 6.18 3.58 12.34 9.11 17.69 15.84 7.66 9.64 13.7 21.68 16.28 33.69 2.57 12.01 1.11 21.59-2.78 27.25-3.9 5.66-10.05 7.89-18.75 5.37-4.2-1.21-6.66-3.38-8.44-6.56-1.79-3.17-2.76-7.43-3.31-12.44-1.12-10-.59-22.82-3.32-35.56-.95-4.44-2.22-8.53-3.59-12.25-.96 1.37-2.02 2.66-3.16 3.88.99 2.89 1.89 5.96 2.6 9.25 2.58 12.04 2.04 24.62 3.22 35.15.58 5.27 1.6 10.07 3.84 14.07 2.24 3.99 5.86 7.07 11 8.56 9.97 2.88 18.55-.01 23.41-7.06 4.85-7.06 6.17-17.76 3.43-30.54-2.73-12.77-9.07-25.33-17.12-35.46-6.1-7.68-13.19-13.98-20.59-17.85z"
          color="#000"
          transform="translate(210.37 192.27)"
        ></path>
        <path
          fill="#000"
          d="M72.625 111.31c-5.743 3.51-11.269 8.31-16.25 13.97-8.551 9.72-15.503 21.94-18.875 34.56s-2.593 23.37 1.906 30.66c4.5 7.29 12.961 10.63 23.063 8.25 5.209-1.23 8.935-4.13 11.375-8 2.439-3.87 3.713-8.61 4.562-13.84 1.699-10.47 1.789-23.07 4.969-34.97 1.248-4.67 2.871-8.91 4.563-12.72a35.056 35.056 0 01-3.688-2.19c-1.816 4.09-3.601 8.7-4.969 13.81-3.363 12.59-3.479 25.44-5.093 35.38-.808 4.97-1.997 9.17-3.938 12.25s-4.501 5.15-8.75 6.15c-8.815 2.08-14.86-.49-18.469-6.34-3.609-5.84-4.577-15.44-1.406-27.31s9.804-23.63 17.937-32.88c4.513-5.13 9.488-9.47 14.532-12.68a24.1 24.1 0 01-1.469-4.1z"
          color="#000"
          transform="translate(210.37 192.27)"
        ></path>
        <path
          fill="#000"
          d="M359.26 247.85c42.123 83.405-10.414 136.97-57.727 129.48 90.739 58.618 135.3-35.196 57.727-129.48z"
          transform="matrix(-.04692 -.15008 -.09818 .05583 437.32 397.66)"
        ></path>
      </g>
    </svg>