<svg
      xmlns="http://www.w3.org/2000/svg"
      version="1.1"
      viewBox="0 0 403.57 513.82"
    >
      <g transform="translate(-175.71 -157.11)">
        <g>
          <path
            fill="#000"
            stroke="#000"
            strokeWidth="1"
            d="M305 234.51l10-22.143 1.786 22.857 5-23.929 10.714 15 2.5-15 9.285 16.786 11.786-17.143 5.715 15.714 10.714-13.929 3.571 35-15 13.929-1.786-25.357-7.142 21.786S340 222.724 341.429 229.152c1.428 6.429 1.785 24.286 1.785 24.286s-17.857-16.071-16.429-15.357c1.429.714 1.429 21.071 1.429 21.071l-14.643-22.5-1.786 26.429z"
          ></path>
          <g transform="matrix(-1 0 0 1 678.56 5.714)">
            <path
              fill="#63605f"
              d="M475.53 307.88l24.244-18.183-27.274 3.283 14.395-15.91-12.374.253 9.344-8.84-12.122-4.04 9.344-6.818-10.354-1.768 8.839-10.354-14.395 3.535 14.647-13.385-9.85.758 6.062-10.354-9.092-.253 2.273-18.94 3.535-3.03-5.303.252 3.03-6.313h-2.272l.505-8.586-4.293-1.263 2.525-5.05-3.283.757.758-6.819-3.788 2.02-.505-10.606-1.768 2.02-1.516-7.576-3.283 2.525-4.293-8.08-1.262 4.545-9.344-4.293 1.01 4.798-8.334-.253 1.515 3.283-7.07 1.01 3.535 3.536-13.89 2.525 6.566 3.789-7.829 2.525 7.071 5.05-9.344 2.274 3.788 2.777-16.415 5.809 10.86 5.556-12.628.505 5.304 7.828-14.142-9.849 3.03 16.668-14.9-12.627 6.061 17.93-12.122-3.535 2.02 15.405-6.818-19.951 1.01 45.457 83.085 59.599z"
            ></path>
            <path
              fill="#969d98"
              d="M437.4 180.35c1.515.758 9.849-.253 9.849-.253l-8.839 8.334 12.374.758-15.152 6.818h14.395L436.39 205.1l15.91 2.778-16.668 3.283 11.112 6.313-25.506.253 28.284 12.879-16.92 1.262 13.89 6.566-10.607 1.516 11.364 3.535-15.152 5.05 14.647 3.031-21.466 10.607 18.435-.252-19.445 7.07-14.9-5.302 3.283-8.84-9.849.758 4.04-10.102-10.858 1.768-2.02-10.859 16.92-18.435 4.798-12.374 11.364-17.678 5.05-5.556 6.819-2.272z"
            ></path>
            <path
              fill="#000"
              d="M466.69 218.48l-1.263-25.759-12.627-21.466-10.607-2.273-8.333 10.607-8.587 12.88-4.04 2.02 6.818-14.9 7.829-7.577 7.323-7.07 7.577-.253 7.323 7.828 9.092 20.708z"
            ></path>
            <path
              fill="#7c7166"
              d="M440.68 163.93l-27.779 39.396 1.01-8.334 12.374-20.708 7.324-8.334z"
            ></path>
            <path
              fill="#7a7b72"
              d="M456.34 278.84l18.688-8.586-6.566.252 6.06-11.112-8.585 2.526 5.05-9.85-10.354 2.273 4.041-21.466-8.839 1.516 2.02 10.859-7.828 13.89 8.334 1.767z"
            ></path>
          </g>
          <g>
            <path
              fill="#63605f"
              d="M475.53 307.88l24.244-18.183-27.274 3.283 14.395-15.91-12.374.253 9.344-8.84-12.122-4.04 9.344-6.818-10.354-1.768 8.839-10.354-14.395 3.535 14.647-13.385-9.85.758 6.062-10.354-9.092-.253 2.273-18.94 3.535-3.03-5.303.252 3.03-6.313h-2.272l.505-8.586-4.293-1.263 2.525-5.05-3.283.757.758-6.819-3.788 2.02-.505-10.606-1.768 2.02-1.516-7.576-3.283 2.525-4.293-8.08-1.262 4.545-9.344-4.293 1.01 4.798-8.334-.253 1.515 3.283-7.07 1.01 3.535 3.536-13.89 2.525 6.566 3.789-7.829 2.525 7.071 5.05-9.344 2.274 3.788 2.777-16.415 5.809 10.86 5.556-12.628.505 5.304 7.828-14.142-9.849 3.03 16.668-14.9-12.627 6.061 17.93-12.122-3.535 2.02 15.405-6.818-19.951 1.01 45.457 83.085 59.599z"
            ></path>
            <path
              fill="#969d98"
              d="M437.4 180.35c1.515.758 9.849-.253 9.849-.253l-8.839 8.334 12.374.758-15.152 6.818h14.395L436.39 205.1l15.91 2.778-16.668 3.283 11.112 6.313-25.506.253 28.284 12.879-16.92 1.262 13.89 6.566-10.607 1.516 11.364 3.535-15.152 5.05 14.647 3.031-21.466 10.607 18.435-.252-19.445 7.07-14.9-5.302 3.283-8.84-9.849.758 4.04-10.102-10.858 1.768-2.02-10.859 16.92-18.435 4.798-12.374 11.364-17.678 5.05-5.556 6.819-2.272z"
            ></path>
            <path
              fill="#000"
              d="M466.69 218.48l-1.263-25.759-12.627-21.466-10.607-2.273-8.333 10.607-8.587 12.88-4.04 2.02 6.818-14.9 7.829-7.577 7.323-7.07 7.577-.253 7.323 7.828 9.092 20.708z"
            ></path>
            <path
              fill="#7c7166"
              d="M440.68 163.93l-27.779 39.396 1.01-8.334 12.374-20.708 7.324-8.334z"
            ></path>
            <path
              fill="#7a7b72"
              d="M456.34 278.84l18.688-8.586-6.566.252 6.06-11.112-8.585 2.526 5.05-9.85-10.354 2.273 4.041-21.466-8.839 1.516 2.02 10.859-7.828 13.89 8.334 1.767z"
            ></path>
          </g>
          <path
            fill="#939b93"
            d="M212.86 315.93l-28.571 24.286h25l-28.571 34.286 43.571-14.286-48.571 40.714 32.857 4.286-17.143 33.57 18.56-11.43-11.43 55.72 27.86-12.86-6.43 28.57 6.429-5 16.429 60.715 17.14-27.85-9.286 53.57 26.429-14.285-15.714 37.857 25-10.714-10 40.714 30.714-25.714-5 30.714 16.429-17.857-8.572 50 23.571-32.857 25 20.714-12.142-41.43 32.143 28.572 10.714-32.143.714 41.429 22.857-50.714v22.857l30.714-38.571-3.56 29.3 27.86-44.29-2.15 19.29 14.29-38.57 2.857 33.57 13.57-47.142 9.287 22.857 13.57-35 18.572 29.286.714-32.857 14.286 20.714 1.428-50 18.571 16.429 6.43-29.286-27.858.714 7.143-17.857-22.14-17.86 18.57-12.15-30.714-10.714h24.286l-20-29.286 17.857 4.286-27.857-42.143-2.857-12.857-30-21.43 22.143.715-37.86-26.42z"
          ></path>
          <path
            fill="#a7a599"
            d="M256.07 526.58l-5.05 15.657 21.717-9.091.505 20.708 13.637-8.082-7.576 22.223 14.647-2.02-6.06 14.647 33.334-9.091-28.789 28.284 19.698-8.587-21.718 33.84 22.223-18.183-2.02 13.132 14.647-15.657-5.05 18.688 11.111-14.142 13.132 23.234.505-22.223 19.193-2.02-5.556-39.396 43.437 31.82-19.698-38.386 41.416 27.274-16.162-54.548L448 571.026l-21.718-57.579 48.487 33.84s-8.586-43.942-7.07-41.92c1.515 2.02 28.283 23.738 28.283 23.738l-3.03-33.84 36.365 8.081-12.627-29.8 19.698 3.03-17.678-21.717 19.193-.505-19.193-16.162-24.75-9.092 19.699 19.698-14.647 4.546 10.102 17.678-28.79-9.091 10.608 18.183-16.668-8.587 3.535 24.244-22.728-19.193 2.02 26.264-19.697-10.607 6.06 19.193-31.82-25.254-3.03 45.962-28.789-23.234 8.081 36.871-20.203-12.122 6.061 34.345-28.789-18.183 4.04 54.043-9.596-27.779-20.203 19.698 4.04-41.416-19.192 5.051 5.05-26.769-25.758 4.546 7.07-24.75-28.788 7.072z"
          ></path>
          <path
            fill="#45322d"
            d="M253.55 520.52l.505 10.607 10.607-1.01-3.03 10.607 13.132-7.071-6.566 14.647 14.142-2.02-8.082 15.656 13.637-2.02-3.535 13.637 8.081-1.01v15.152l7.576-2.526-1.01 15.657 12.122-3.535 2.525 18.688h15.657l-6.06 11.112 5.555 6.566 6.566-15.152 5.556 11.112 11.112-18.688 6.566 10.607-6.06-41.921 11.111 20.708.505-43.942 9.092 6.566 6.06-50.003 7.072 31.315 14.142-42.931 3.03 24.749 9.597-30.81 12.627 17.678 4.545-32.83 14.647 28.284 5.051-22.728 12.627 13.132 3.536-17.678 16.162 12.122-5.051-23.739 15.657.505 1.01-14.142 13.637 10.607 2.02-23.234 16.668-6.566-4.545 24.244 6.06 18.183-14.646-6.06 5.05 17.172-18.688-7.07 7.577 19.697-12.627-9.091 7.07 18.688-23.738-9.092 10.607 18.183-26.77-11.617 9.597 24.244-18.688-20.708-6.06 31.315-11.618-22.728 14.142 41.921-20.708-12.627-.505 27.274-13.637-17.173-4.04 24.244-15.153-20.203v31.82l-8.586-12.122 6.061 29.8-10.102-18.688-15.657 45.457 3.536-26.264L348 648.307l-18.183-12.122-10.102 12.627-11.112-23.739-15.657-20.203-11.617 1.01-1.01-22.223-11.113 3.031-1.515-22.223-12.122 4.546 3.536-17.678-10.607 4.04 5.555-13.637-14.647-5.556z"
          ></path>
          <path
            fill="#c9bdb4"
            d="M245.71 390.93L225 408.79l25 7.143-18.571 6.429 25 2.857-25 9.285 27.857 6.429-25 5L285 458.076h-55.714l25 13.57-15 11.43 22.143-2.857-12.857 12.857 18.571-3.572-15.714 24.286 25.714-7.142-5 13.57 20-.714-2.14 12.85 16.43-1.43-10.72 12.15 19.29-2.86-14.286 16.43 12.857-5.715-17.857 22.143 20-5-15 27.857 17.143-20-7.857 34.286 6.429-22.143 5.714 31.429 4.285-24.286 17.858 17.143-6.43-38.571 25.715 7.857-12.857-37.857 22.857 6.429 9.286-21.43 15 .715 7.14-28.58 17.14 13.58 2.86-31.43 12.857 17.857 3.571-42.143 12.143 14.286 10-22.857 7.857 12.857-1.43-24.29-11.429-10.714 20-12.143-17.86-9.28 14.29-18.57z"
          ></path>
          <path
            fill="#a7acb1"
            d="M284.29 392.72l-22.5 13.214 19.286 3.214-28.214 16.786 28.571 3.929-12.857 9.286 18.571 1.785-13.929 13.571 18.929-2.857-15 10.714 13.571 1.429-7.857 9.286 15.357 1.428 115.36 1.072-7.143-25.714 16.429 3.928-10.714-17.5 19.286 5.357-6.45-14.65 17.143 4.643-11.071-16.429-10-12.857z"
          ></path>
          <path
            fill="#7a7e76"
            d="M321.23 454.86l-16.668-39.901-12.627 24.749 7.071-30.305-14.142 13.637 5.05-20.708L276.784 419l4.546-22.223-23.234 8.081 9.091-10.607-19.193 3.03 5.556-9.596-16.162 11.112 9.091-14.142-17.173 10.102 9.597-15.657-18.183 10.607 8.08-13.637-19.697 8.587 10.607-14.647-19.698 5.05 14.647-11.617-20.708-6.06 17.678-1.516-15.198-1.892 15-8.572-10.893-1.964 12.5-2.857-11.25-6.607 11.607 2.5-8.42-8.56 14.464 1.071-9.822-8.929 13.571.893-7.321-10.536 14.107 3.393-8.393-11.964 18.214 3.214-10.714-12.679 15 5.179-1.607-14.107 11.964 4.643-2.857-12.68 12.143 5.537.405-16.995 16.668 1.262-4.04-15.405 21.717 5.556-2.525-12.122 13.385 7.071 5.808-12.627 8.586 10.86 3.788-13.638 8.587 9.344 5.303-9.091 8.334 9.091 4.798-10.354 5.556 9.596 11.869-8.08-1.263 10.101 7.324-4.545-2.273 7.576 12.122-4.293-.505 9.091 8.334-3.536 2.273 8.587 9.849-3.536.505 12.88 10.354-4.546-4.799 13.637 25.254-11.112-12.374 14.9 20.203-5.556-9.596 13.637 19.951-7.324-9.849 20.456 15.152-13.132-5.303 12.374 20.456-3.283-18.688 7.071 21.718-3.283s-17.173 12.122-15.91 12.122c1.262 0 15.91-2.525 15.91-2.525l-8.334 7.829 21.466-5.304s-21.971 12.122-20.456 11.87c1.515-.253 22.98 7.828 22.98 7.828l-19.444-1.01 9.849 8.081s21.213 8.334 20.203 8.586c-1.01.253-26.264-2.02-26.264-2.02l17.678 17.173-18.435-7.829 13.385 13.637-19.951-4.798 15.91 10.102-18.94-.758 13.385 10.86-26.011-6.82 1.768 7.577-12.627-1.263 19.445 6.314s-20.203-.253-19.193-.253c1.01 0 10.354 5.051 10.354 5.051l-14.647-3.03 12.374 12.374-18.435-3.536 10.859 12.374-16.415-4.04 20.708 14.142-15.405.252-28.537-22.728 10.607 18.688-19.698-3.03 7.576 10.607s-17.173.505-14.647.505c2.525 0 16.162 11.617 16.162 11.617l-21.213-.505 15.657 9.596-18.183 9.596z"
          ></path>
          <path
            fill="#000"
            d="M397.14 329.15l9.643-1.429 15 5.358-6.072 18.57 10.357-11.428 13.93-6.429 16.428 4.643-12.5-8.214-13.214.714-20.357-7.143-9.285 2.5 10-7.5-20.714 12.857z"
          ></path>
          <path
            fill="#dddcf9"
            d="M315.54 357.54c-10.771-14.419-17.413-21.401-32.679-24.821-11.251-2.521-20.111 10.25-20.977 21.728-4.55 60.326 33.19 29.929 52.107 25.968 12.242-2.563 4.256 23.47.033 34.077-7.42 18.642-16.127 37.657-14.909 58.291.555 9.4 1.148 18.858 6.958 27.441 7.007 10.351 18.881 12.831 28.854 17.92 12.953 6.61 29.016 4.496 41.493-2.447 8.248-4.59 14.601-11.107 19.956-19.32 6.092-9.342 8.604-19.749 7.487-30.142-1.268-11.791-11.73-19.718-16.37-30.7-4.805-11.368-5.958-23.407-8.001-35.312-1.68-9.78 2.545-19.911 13.058-14 4.195 2.36 6.566 9.494 11.382 8.995 12.053-1.248 21.039-13.775 23.457-26.388 1.73-9.031 2.025-19.62-4.528-25.04-8.453-6.99-22.537-6.13-32.563-.469-9.193 5.191-18.105 14.467-20.446 24.777-2.994 13.187-3.338 26.647-2.689 40.18.44 9.18 3.13 18.511 10.231 25.17 3.403 3.191 8.62 22.254 4.055 20.13-8.916-4.15-17.9-13.195-28.174-12.826-20.557.738-40.336 21.686-38.045 9.48 1.94-10.335 3.386-23.132 7.375-32.648 4.29-10.235 11.379-21.012 6.71-32.491-3.873-9.518-7.622-19.314-13.776-27.552z"
          ></path>
          <path
            fill="#000"
            stroke="#000"
            strokeWidth="1"
            d="M273.38 353.3l9.624-2.754c6.484-1.856 15.34-.91 17.531.679 8.05 5.835 6.054 16.509 9.295 24.74-3.7-3.23-5.163-5.191-10.498-6.275-1.544-.314-4.674.417-7.207-.295-7.115-1.345-12.046-9.782-18.745-16.096z"
          ></path>
          <path
            fill="#9e9868"
            d="M285.65 351.09c-1.473 1.479-2.377 3.48-2.377 5.683 0 4.554 3.858 8.254 8.629 8.254s8.63-3.7 8.63-8.254c0-1.95-.694-3.763-1.879-5.175l-13.003-.508z"
          ></path>
          <path
            fill="#000"
            d="M400.18 348.7a3.84 3.84 0 11-7.679 0 3.84 3.84 0 017.679 0z"
            transform="translate(-104.11 6.071)"
          ></path>
          <path
            fill="#fff"
            d="M291.43 353.32a.826.826 0 11-1.652 0 .826.826 0 011.652 0z"
            transform="translate(-160.36 -195.77) scale(1.5546)"
          ></path>
          <path
            fill="#000"
            stroke="#000"
            strokeWidth="1"
            d="M419.37 347.2c-4.142-3.251-12.269-3.123-27.656-1.724-5.79 3.398-4.749 12.05-6.824 18.948-.435 3.767-4.395 10.92-3.464 10.49 2.245-1.997 5.53-7.014 10.924-8.662 6.726-2.055 11.015-4.706 18.493-13.947 2.852-3.524 7.574-5.478 8.526-5.105z"
          ></path>
          <path
            fill="#9e9868"
            d="M402.53 345.18c-3.142.152-6.693.438-10.812.813-.038.037-.088.056-.125.093a8.54 8.54 0 00-2.5 6.031c0 4.71 3.815 8.532 8.5 8.532s8.469-3.822 8.469-8.532a8.497 8.497 0 00-3.531-6.937z"
          ></path>
          <path
            fill="#000"
            d="M400.18 348.7a3.84 3.84 0 11-7.679 0 3.84 3.84 0 017.679 0z"
          ></path>
          <path
            fill="#fff"
            d="M396.96 347.54c0 .74-.76 1.34-1.696 1.34-.937 0-1.697-.6-1.697-1.34 0-.74.76-1.34 1.697-1.34s1.696.6 1.696 1.34z"
          ></path>
          <path
            fill="none"
            stroke="#000"
            strokeWidth="1"
            d="M397.62 463.95c14.866-11.636 27.764-11.133 40.659-10.607"
          ></path>
          <path
            fill="none"
            stroke="#000"
            strokeWidth="1"
            d="M400.02 456.25c18.006-11.749 34.241-7.859 50.255-2.02"
          ></path>
          <path
            fill="none"
            stroke="#000"
            strokeWidth="1"
            d="M399.52 453.34c8.11-4.247 11.518-9.217 27.527-12.248"
          ></path>
          <path
            fill="none"
            stroke="#000"
            strokeWidth="1"
            d="M394.84 477.08c3.864-5.912 13.342-8.736 23.865-10.985"
          ></path>
          <path
            fill="none"
            stroke="#000"
            strokeWidth="1"
            d="M393.33 481.12c6.66-5.14 15.506-1.531 23.36-1.894"
          ></path>
          <path
            fill="none"
            stroke="#000"
            strokeWidth="1"
            d="M309.61 477.59c-13.287.204-23.147 1.02-27.022 2.904"
          ></path>
          <path
            fill="none"
            stroke="#000"
            strokeWidth="1"
            d="M311.38 487.43c-16.279.074-26.644 1.275-28.789 4.04"
          ></path>
          <path
            fill="none"
            stroke="#000"
            strokeWidth="1"
            d="M304.94 482.64c-7.718-.288-15.281-.39-19.698 3.283"
          ></path>
          <path
            fill="none"
            stroke="#000"
            strokeWidth="1"
            d="M319.33 491.47c-9.034-.021-17.429 1.051-24.117 5.05"
          ></path>
          <path
            fill="none"
            stroke="#000"
            strokeWidth="1"
            d="M306.2 473.04c-4.416-4.53-14.634-6.74-23.865-9.344"
          ></path>
          <path
            fill="#2c1822"
            d="M380.34 467.22c-.864-15.052-13.722-16.885-28.177-17.292-15.568-.69-27.919 5.568-29.31 15.883-3.538 18.508 15.985 33.439 29.938 33.308 13.888-.13 27.86-10.45 27.548-31.899z"
          ></path>
          <path
            fill="#000"
            d="M416.96 458.86c1.803 7.142-5.186 13.065-6.844 19.771-5.123 11.663-13.017 24.465-25.256 28.805-34.991 14.469-39.306 8.385-58.861 4.308-8.354-2.134-16.953-5.193-22.308-12.45-7.174-7.424-11.236-17.746-18.43-24.718-8.337-6.921 5.996-8.084 8.152-1.52 4.6 7.516 5.867 17.955 11.087 25.217 5.368 7.18 13.899 10.406 22.646 11.293 9.086.921 18.406-.678 24.656-2.984 2.927-1.08 1.88-13.692 1.969-18.309-.282 5.099-2.44 17.173 1.129 18.466 8.433 3.057 27.038 2.472 35.619-3.645 10.082-6.9 16.379-20.2 12.699-31.997 4.802-8.465 9.912-14.877 13.74-12.238z"
          ></path>
          <path
            fill="#000"
            stroke="#000"
            strokeWidth="1"
            d="M336.76 486.8c4.048-.156 6.617-.544 10.174-4.392.363-3.212-5.322-6.5-7.901-5.33-1.202.79-1.362 2.61-1.515 4.04-.111 1.035 1.61 2.434.757 3.03-5.212 1.705-11.735-2.655-13.51-4.04 1.967 5.768 6.726 6.602 11.995 6.692z"
          ></path>
          <path
            fill="#fff"
            d="M333.1 468.62c1.917-1.014 4.479-.483 5.793 1.258 1.369 1.452 3.023 3.173 5.215 2.896 2.772.005 5.546.067 8.317-.042 1.656-.657 3.396-2.004 5.213-.987 1.426.474 3.285.958 4.452-.304 1.22-1.06 3.037-1.7 4.582-.98 1.8.403 1.81-1.908 1.478-3.086-.235-2.012-2.154-3.224-3.98-3.633-2.041-.271-3.16-1.915-4.199-3.437-1.448-1.183-3.445-.59-4.83.376-1.688 1.077-3.501 2.726-5.665 2.171-2.147-.56-4.174-2.237-6.5-1.595-1.511.774-2.392 2.696-4.304 2.63-2.053.42-4.361.371-6.066 1.766-.729.925-.114 2.16.494 2.967z"
          ></path>
          <path
            fill="#000"
            stroke="#000"
            strokeWidth="1"
            d="M377.67 481.5c-.472-.756-1.372-.157-1.964.104-1.25.507-2.671.203-3.866-.313-1.01-.55-.701-1.81-.074-2.526.638-.786.386-1.89-.358-2.5-.814-.8-2.072-1.037-3.137-.653-2.96.76-5.173 3.191-6.552 5.815-1.305 3.503 1.008 5.501 3.933 5.858 2.406.17 4.83.08 7.226-.176 1.152-.218 2.344-.564 3.258-1.323.613-.817.717-1.88 1.208-2.762.184-.488.327-1 .326-1.524z"
          ></path>
          <path
            fill="#000"
            d="M361.43 337.36l1.786 21.429 10-42.143-20.72-16.07 4.64-17.15-12.14 13.58-5-14.643 28.57-2.143-30.713-5-48.214 14.286 25.357-3.929h13.57l-.714 13.214-10.357-10-5.714 14.643-10 1.786 8.572 15.357 2.857-10.357 6.428 20.714 4.643 17.143 3.572-19.643 2.142 19.286 6.072-33.57 6.786 21.428 1.07-20 4.287 20 10-11.786-7.5-17.5 17.857 18.571-12.143 12.5z"
          ></path>
          <path
            fill="#000"
            d="M427.5 358.08l9.643 16.071-3.571-18.929-10-7.5z"
          ></path>
          <path
            fill="#000"
            d="M281.07 333.43s-29.643 3.929-26.786 4.643c2.857.714 18.214 1.429 18.214 1.429s-18.571 4.642-16.429 5.357c2.143.714 14.643 1.785 14.643 1.785l-16.071 8.215 8.929-1.429-8.929 12.143 14.643-.714-16.786 8.571 11.071 1.072-6.071 7.857 11.429-.715-9.643 8.929 14.286-2.5-10.714-9.286-1.072-8.214.357-9.286 5-17.5 5-6.785z"
          ></path>
          <path
            fill="#000"
            d="M464.29 415.58l15.357-10.714-.714 12.143 13.929-18.214 7.857 17.5 5-24.286 16.786 12.857 6.786-11.429 10.357 18.929-26.071-5.357 4.643 20.714-26.786-8.214-3.93 23.214-11.428-21.071-3.214 15z"
          ></path>
        </g>
      </g>
    </svg>