    <svg
      xmlns="http://www.w3.org/2000/svg"
      xmlnsXlink="http://www.w3.org/1999/xlink"
      width="30mm"
      height="32mm"
      version="1.1"
      viewBox="0 0 106.299 113.386"
    >
      <defs>
        <linearGradient id="linearGradient6537">
          <stop offset="0" stopColor="#443620" stopOpacity="1"></stop>
          <stop offset="0.609" stopColor="#443620" stopOpacity="0.655"></stop>
          <stop offset="1" stopColor="#443620" stopOpacity="0"></stop>
        </linearGradient>
        <linearGradient id="linearGradient6372">
          <stop offset="0" stopColor="#367b4f" stopOpacity="1"></stop>
          <stop offset="0.254" stopColor="#367b4f" stopOpacity="1"></stop>
          <stop offset="0.599" stopColor="#205e3f" stopOpacity="1"></stop>
          <stop offset="1" stopColor="#185139" stopOpacity="1"></stop>
        </linearGradient>
        <linearGradient id="linearGradient6050">
          <stop offset="0" stopColor="#010a3e" stopOpacity="1"></stop>
          <stop offset="0.097" stopColor="#202130" stopOpacity="1"></stop>
          <stop offset="0.43" stopColor="#3e1301" stopOpacity="1"></stop>
          <stop offset="0.63" stopColor="#3e1301" stopOpacity="1"></stop>
          <stop offset="0.694" stopColor="#013e0c" stopOpacity="1"></stop>
          <stop offset="1" stopColor="#013e20" stopOpacity="1"></stop>
        </linearGradient>
        <pattern
          id="pattern5999"
          patternTransform="matrix(.13975 .2795 -3.2423 1.62115 3.645 -1.682)"
          xlinkHref="#Strips1_1"
        ></pattern>
        <pattern
          id="Strips1_1"
          width="2"
          height="1"
          patternTransform="scale(10)"
          patternUnits="userSpaceOnUse"
        >
          <path fill="#000" stroke="none" d="M0 -0.5H1V1.5H0z"></path>
        </pattern>
        <pattern
          id="pattern5903"
          patternTransform="matrix(.7625 0 0 .95 3.52 -1.557)"
          xlinkHref="#Polkadots-large"
        ></pattern>
        <pattern
          id="pattern5807"
          patternTransform="matrix(1.1 0 0 1.175 3.645 -1.682)"
          xlinkHref="#Polkadots-large"
        ></pattern>
        <pattern
          id="pattern5713"
          patternTransform="matrix(.96671 0 0 .82529 3.877 -1.568)"
          xlinkHref="#Polkadots-large"
        ></pattern>
        <pattern
          id="Polkadots-large"
          width="10"
          height="10"
          patternTransform="scale(10)"
          patternUnits="userSpaceOnUse"
        >
          <circle
            cx="2.567"
            cy="0.81"
            r="0.45"
            fill="#000"
            stroke="none"
          ></circle>
          <circle
            cx="3.048"
            cy="2.33"
            r="0.45"
            fill="#000"
            stroke="none"
          ></circle>
          <circle
            cx="4.418"
            cy="2.415"
            r="0.45"
            fill="#000"
            stroke="none"
          ></circle>
          <circle
            cx="1.844"
            cy="3.029"
            r="0.45"
            fill="#000"
            stroke="none"
          ></circle>
          <circle
            cx="6.08"
            cy="1.363"
            r="0.45"
            fill="#000"
            stroke="none"
          ></circle>
          <circle
            cx="5.819"
            cy="4.413"
            r="0.45"
            fill="#000"
            stroke="none"
          ></circle>
          <circle
            cx="4.305"
            cy="4.048"
            r="0.45"
            fill="#000"
            stroke="none"
          ></circle>
          <circle
            cx="5.541"
            cy="3.045"
            r="0.45"
            fill="#000"
            stroke="none"
          ></circle>
          <circle
            cx="4.785"
            cy="5.527"
            r="0.45"
            fill="#000"
            stroke="none"
          ></circle>
          <circle
            cx="2.667"
            cy="5.184"
            r="0.45"
            fill="#000"
            stroke="none"
          ></circle>
          <circle
            cx="7.965"
            cy="1.448"
            r="0.45"
            fill="#000"
            stroke="none"
          ></circle>
          <circle
            cx="7.047"
            cy="5.049"
            r="0.45"
            fill="#000"
            stroke="none"
          ></circle>
          <circle
            cx="4.34"
            cy="0.895"
            r="0.45"
            fill="#000"
            stroke="none"
          ></circle>
          <circle
            cx="7.125"
            cy="0.34"
            r="0.45"
            fill="#000"
            stroke="none"
          ></circle>
          <circle
            cx="9.553"
            cy="1.049"
            r="0.45"
            fill="#000"
            stroke="none"
          ></circle>
          <circle
            cx="7.006"
            cy="2.689"
            r="0.45"
            fill="#000"
            stroke="none"
          ></circle>
          <circle
            cx="8.909"
            cy="2.689"
            r="0.45"
            fill="#000"
            stroke="none"
          ></circle>
          <circle
            cx="9.315"
            cy="4.407"
            r="0.45"
            fill="#000"
            stroke="none"
          ></circle>
          <circle
            cx="7.82"
            cy="3.87"
            r="0.45"
            fill="#000"
            stroke="none"
          ></circle>
          <circle
            cx="8.27"
            cy="5.948"
            r="0.45"
            fill="#000"
            stroke="none"
          ></circle>
          <circle
            cx="7.973"
            cy="7.428"
            r="0.45"
            fill="#000"
            stroke="none"
          ></circle>
          <circle
            cx="9.342"
            cy="8.072"
            r="0.45"
            fill="#000"
            stroke="none"
          ></circle>
          <circle
            cx="8.206"
            cy="9.315"
            r="0.45"
            fill="#000"
            stroke="none"
          ></circle>
          <circle
            cx="9.682"
            cy="9.475"
            r="0.45"
            fill="#000"
            stroke="none"
          ></circle>
          <circle
            cx="9.688"
            cy="6.186"
            r="0.45"
            fill="#000"
            stroke="none"
          ></circle>
          <circle
            cx="3.379"
            cy="6.296"
            r="0.45"
            fill="#000"
            stroke="none"
          ></circle>
          <circle
            cx="2.871"
            cy="8.204"
            r="0.45"
            fill="#000"
            stroke="none"
          ></circle>
          <circle
            cx="4.59"
            cy="8.719"
            r="0.45"
            fill="#000"
            stroke="none"
          ></circle>
          <circle
            cx="3.181"
            cy="9.671"
            r="0.45"
            fill="#000"
            stroke="none"
          ></circle>
          <circle
            cx="5.734"
            cy="7.315"
            r="0.45"
            fill="#000"
            stroke="none"
          ></circle>
          <circle
            cx="6.707"
            cy="6.513"
            r="0.45"
            fill="#000"
            stroke="none"
          ></circle>
          <circle
            cx="5.73"
            cy="9.67"
            r="0.45"
            fill="#000"
            stroke="none"
          ></circle>
          <circle
            cx="6.535"
            cy="8.373"
            r="0.45"
            fill="#000"
            stroke="none"
          ></circle>
          <circle
            cx="4.37"
            cy="7.154"
            r="0.45"
            fill="#000"
            stroke="none"
          ></circle>
          <circle
            cx="0.622"
            cy="7.25"
            r="0.45"
            fill="#000"
            stroke="none"
          ></circle>
          <circle
            cx="0.831"
            cy="5.679"
            r="0.45"
            fill="#000"
            stroke="none"
          ></circle>
          <circle
            cx="1.257"
            cy="8.519"
            r="0.45"
            fill="#000"
            stroke="none"
          ></circle>
          <circle
            cx="1.989"
            cy="6.877"
            r="0.45"
            fill="#000"
            stroke="none"
          ></circle>
          <circle
            cx="0.374"
            cy="3.181"
            r="0.45"
            fill="#000"
            stroke="none"
          ></circle>
          <circle
            cx="1.166"
            cy="1.664"
            r="0.45"
            fill="#000"
            stroke="none"
          ></circle>
          <circle
            cx="1.151"
            cy="0.093"
            r="0.45"
            fill="#000"
            stroke="none"
          ></circle>
          <circle
            cx="1.151"
            cy="10.093"
            r="0.45"
            fill="#000"
            stroke="none"
          ></circle>
          <circle
            cx="1.302"
            cy="4.451"
            r="0.45"
            fill="#000"
            stroke="none"
          ></circle>
          <circle
            cx="3.047"
            cy="3.763"
            r="0.45"
            fill="#000"
            stroke="none"
          ></circle>
        </pattern>
        <linearGradient
          id="linearGradient6056"
          x1="14.006"
          x2="81.922"
          y1="65.976"
          y2="2.16"
          gradientUnits="userSpaceOnUse"
          xlinkHref="#linearGradient6050"
        ></linearGradient>
        <radialGradient
          id="radialGradient6378"
          cx="131.976"
          cy="48.984"
          r="10.032"
          fx="131.976"
          fy="48.984"
          gradientTransform="matrix(.5771 -1.12775 1.35753 .69468 -65.838 128.53)"
          gradientUnits="userSpaceOnUse"
          xlinkHref="#linearGradient6372"
        ></radialGradient>
        <linearGradient
          id="linearGradient6543"
          x1="140.144"
          x2="171.063"
          y1="84.966"
          y2="78.841"
          gradientTransform="translate(-118.44 -28.284)"
          gradientUnits="userSpaceOnUse"
          xlinkHref="#linearGradient6537"
        ></linearGradient>
      </defs>
      <g
        strokeDasharray="none"
        strokeMiterlimit="4"
        strokeOpacity="1"
        transform="translate(-1.161 5.442)"
      >
        <path
          fill="#ffba68"
          fillOpacity="1"
          fillRule="evenodd"
          stroke="#8a0"
          strokeLinecap="butt"
          strokeLinejoin="miter"
          strokeWidth="0.291"
          d="M61.582 82.618c.259 1.875.303 3.394.063 4.437l-1.25 2.563.125 1.062 1.687-.75c1.783 2.15 2.774 5.728 6.375 5l2.75.25 3.5-1 1.938-1.375 1.25-4.5-6.125 1.063-4.313.062-1.125-1.25c-.13-2.02-.044-4.042-1.125-6.062z"
        ></path>
        <path
          fill="#fff"
          fillRule="evenodd"
          stroke="#fc0"
          strokeLinecap="butt"
          strokeLinejoin="miter"
          strokeWidth="0.291"
          d="M11.77 61.993l11 5.625 6.375 6.125c5.546 2.945 11.514 7.049 15.812 6.562.958-.686 1.769-.783 2.563-.812.939.03 1.896.193 3 1.375 1.46 1.199 3.21 1.537 5 1.75 5.48-.373 10.98-.946 16.625-3.125l9.375-2.5 9.5-6.5c3.677-2.958 3.331-6.362 4.25-9.625.45-5.517-.618-8.84-1.625-12.25l-8.125-13.25-3.625-9.5-.25-5.875-1.25-2.25 2.125-1.625 1-3 .437-2.188 3.313 2.188 1.125-1.375-.5-5.875c-1.953-2.04-3.807-4.167-7.375-4.75-3.981-.898-5.748.419-7.625 1.625-1.085 1.763-2.342 2.753-3.125 5.875-1.524 4.24-1.069 8.273-.938 11.687l1.438 14.563-1 5.25c-2.731-1.544-5.48-2.843-8.375-2.25-6.367-.324-8.574 1.523-11.25 3.125l-13.75 4.25L24.27 51.18l-5.875-1.562-.938 2.312c-1.815-.812-3.617-1.835-4.312-1.687l1.625 3.5-1.75 1.625.625 1.375-3.938 1.687 2.938 1.75z"
        ></path>
        <path
          fill="#000437"
          fillOpacity="1"
          fillRule="evenodd"
          stroke="none"
          strokeLinecap="butt"
          strokeLinejoin="miter"
          strokeWidth="0.291"
          d="M13.661 56.756c1.564 1.75 1.745 3.954 3.375 5l-3.5.875 6.375 3c2.787-2.48 2.233-5.67 4.125-7.125-.676-1.313-1.182-2.74-2.875-3.375-.795-.258-1.417-.966-1.625-2.75 1.4-.356 1.622-1.184 1.875-2l-2.375-.625-1.5 2.75c-1.31-1.428-2.837-1.983-4.5-2l1.875 3.75c-1.439.06-1.71.607-1.75 1.25z"
        ></path>
        <path
          fill="url(#linearGradient6543)"
          fillOpacity="1"
          fillRule="evenodd"
          stroke="none"
          strokeLinecap="butt"
          strokeLinejoin="miter"
          strokeWidth="0.291"
          d="M57.122 50.08c-6.793-.066-15.8 1.15-19.28 2.505l-5.126 6.187-5.48 1.945-2.652-1.414c-.693-1.085-1.051-1.878-3.005-4.066 1.189-.936 1.505-2.975 3.412-3.91 1.634-1.345 3.315-2.596 5.604-2.63 2.876-.321 5.822-.48 9.192.353 1.625-.565 9.254-2.736 11-2.708 3.21.053 4.894 1.656 6.335 3.738z"
        ></path>
        <path
          fill="url(#pattern5903)"
          fillOpacity="1"
          fillRule="evenodd"
          stroke="none"
          strokeLinecap="butt"
          strokeLinejoin="miter"
          strokeWidth="0.291"
          d="M50.719 49.588c-6.793-.066-9.426 1.651-12.905 3.005l-5.126 6.188-5.48 1.944-2.652-1.414c-.693-1.085-1.052-1.878-3.005-4.066 1.188-.936 1.505-2.974 3.412-3.91 1.634-1.345 3.315-2.596 5.603-2.63 2.877-.321 5.823-.479 9.193.353 4.61-1.602 7.383.21 10.96.53z"
          opacity="0.317"
        ></path>
        <path
          fill="url(#radialGradient6378)"
          fillOpacity="1"
          fillRule="evenodd"
          stroke="none"
          strokeLinecap="butt"
          strokeLinejoin="miter"
          strokeWidth="0.291"
          d="M82.876 30.155s-1.875 1.07-2.917 1.149c-2.259.172-4.377-1.25-6.629-1.503-1.23-.137-3.712 0-3.712 0l-1.59-15.026c.597-2.869 1.3-5.869 2.827-9.9 3.696-4.49 6.202-3.628 9.016-4.154C83.154 2 86.307 3.391 87.738 6.29l.353 5.126-1.06 1.238-3.36-1.945c-.281 2.204-.485 4.505-1.679 5.569l-1.856 1.59 1.503 3.536z"
        ></path>
        <path
          fill="#7b5836"
          fillOpacity="1"
          fillRule="evenodd"
          stroke="none"
          strokeLinecap="butt"
          strokeLinejoin="miter"
          strokeWidth="0.291"
          d="M51.775 39.524c4.773 1.503 8.315 1.712 9.501 3.784 3.647 6.37 3.385 14.671 4.741 21.884 1.007 5.357 5.984 13.361 10.863 13.013 4.416-1.087 8.48-2.223 12.896-6.272 2.38-2.906 4.93-5.475 5.375-12.25-.464-4.368.523-8.157-3-13.75l-7.625-12.75c-1.26 1.313-2.442 1.675-4.375 1.375-2.284-.353-4.448-2.812-7.375-2.125-1.699.4-2.438-.017-2.125 1.75l-1.25 5.75c-4.166-1.447-13.46-.942-17.626-.409z"
          display="inline"
        ></path>
        <path
          fill="url(#pattern5713)"
          fillOpacity="1"
          fillRule="evenodd"
          stroke="none"
          strokeLinecap="butt"
          strokeLinejoin="miter"
          strokeWidth="0.291"
          d="M51.768 39.459c4.773 1.502 8.315 1.711 9.502 3.784 3.646 6.37 3.385 14.67 4.74 21.883 1.008 5.357 5.984 13.361 10.863 13.013 4.417-1.087 8.48-2.223 12.897-6.271 2.38-2.907 4.929-5.475 5.375-12.25-.464-4.37.522-8.158-3-13.75l-7.625-12.75c-1.26 1.312-2.443 1.674-4.375 1.375-2.285-.354-4.448-2.813-7.375-2.125-1.7.399-2.438-.018-2.125 1.75l-1.25 5.75c-4.167-1.448-13.46-.943-17.627-.41z"
          display="inline"
          opacity="0.312"
        ></path>
        <path
          fill="url(#pattern5999)"
          fillOpacity="1"
          fillRule="evenodd"
          stroke="none"
          strokeLinecap="butt"
          strokeLinejoin="miter"
          strokeWidth="0.291"
          d="M13.645 56.743c1.563 1.749 1.745 3.953 3.375 5l-3.5.875 6.375 3c2.786-2.48 2.233-5.67 4.125-7.125-.677-1.313-1.183-2.74-2.875-3.375-.795-.259-1.417-.966-1.625-2.75 1.4-.357 1.621-1.185 1.875-2l-2.375-.625-1.5 2.75c-1.31-1.43-2.838-1.984-4.5-2l1.875 3.75c-1.44.06-1.71.607-1.75 1.25z"
          opacity="0.312"
        ></path>
        <path
          fill="url(#linearGradient6056)"
          fillOpacity="1"
          fillRule="evenodd"
          stroke="none"
          strokeDashoffset="0"
          strokeLinecap="butt"
          strokeLinejoin="miter"
          strokeWidth="2.835"
          d="M78.379-.2c-2.32.148-4.461 1.175-5.93 2.376-1.82 1.489-3.087 3.258-3.045 5.24-.938 1.616-1.133 2.86-1.502 5.033-.569 3.355-.536 5.676-.08 10.723.24 2.652.359 5.385.916 7.865.717 3.187.594 5.429-.488 7.04-2.014-.78-4.253-1.212-6.266-1.45-2.993-.352-4.804-.314-7.252.085-2.577.42-5.162 2.467-7.095 3.202-4.151 1.579-5.96 1.738-10.032 3.074-1.446.474-4.16 2.745-5.978 3.44-2.204.842-3.427 1.884-5.094 2.7-.877.43-1.95 1.36-2.34 1.39-1.35-.322-2.737-1.453-5.609-1.774-.64.05-1.057 1.814-1.422 2.19-.73-.37-3.31-1.62-4.664-1.477-.478 1.83 1.017 2.411 1.18 3.877-.282.767-1.758 1.497-1.62 2.162.042.2.754.902.811 1.088-.614.24-1.382.75-1.92.84-.574.132-2.188-1.01-2.52-.639-.331.372.441 1.984.876 2.184.796.366 2.08 1.244 2.267 1.41l-1.88 1.15.663.701c1.816 1.917 3.92 2.228 5.502 2.67.086.041 1.324.628 2.801 1.389 1.527.787 3.326 1.846 3.65 2.127 1.326 1.15 2.425 3.038 4.33 4.545 2.054 1.623 4.348 2.657 6.41 3.746 1.746.921 3.386 1.444 5.278 2.68 1.892 1.236 3.065 2.022 5.674 1.85 1.15-.077 3.206-1.074 3.254-2.415-1.192.484-2.628.785-2.371.768-1.747.115-3.264-.574-4.951-1.676-1.687-1.102-3.726-1.979-5.842-3.096-2.161-1.14-4.562-2.178-6.256-3.517-1.343-1.062-2.597-2.9-4.4-4.463-.998-.865-2.463-1.38-4.04-2.194-1.576-.812-3.53-1.736-3.53-1.736-.861-.257-1.686-1.431-2.69-2.137l.99-.896-2.914-1.357 3.617-1.706c-.25-.575-.83-1.02-.908-1.392-.077-.371 1.444-.48 1.482-1.303.039-.822-1.263-2.237-.998-2.844.755.299 2.693 1.618 3.553 2.223.335-.645.934-2.042 1.281-2.676 1.367-.087 3.7.747 5.063 1.237.557-.434 1.635-.726 2.883-1.364 2.084-1.064 3.637-1.523 5.353-2.18 1.38-.527 4.897-2.422 6.703-3.015 4.262-1.398 6.353-1.777 10.399-3.314 2.263-.86 4.49-2.114 6.344-2.416 2.7-.44 3.695-.393 6.246-.268 2.177.107 3.462.543 5.32 1.122.242.723-.376 1.403-1.393 2.9 0 0-2.472 1.916-2.83 2.946 1.074.043 2.663-.722 3.606-1.665 1.776-1.777 2.303-2.619 3.195-4.323.344-.657 1.035-2.394 1.162-4.185.233-3.272-.034-3.84-.334-6.61-.277-2.556-.568-4.071-.85-6.505-.663-5.734-.812-7.47-.349-10.2.307-1.811.672-2.974 1.36-4.783.655-1.724 1.593-3.268 3.033-4.445.977-.799 2.695-1.43 4.326-1.514a5.99 5.99 0 011.57.112c2.11.458 4.939 2.062 5.873 3.482.377.572 1.435 2.526 1.611 3.617.149.916.19 2.386-.652 2.467l-1.852-1.219c-.26-.107-.677-.624-1.33-.385-.653.24-.745.856-1.005 2.157-.261 1.3.183 2.171-.743 3.396-.35.071-1.045.084-1.466.328-.345.2-.58.389-.795.887-.223.944.295 1.571.7 2.266-.613-.027-3.233-.214-4.066-.979-1.758-.294-2.243-1.193-3.814-2.834-.783.273.271 2.42 1.41 3.424.975.826 2.52 1.598 3.791 1.756 1.153.178 2.04.36 3.432.732-.132 1.138-.079 3.087-.012 4.367.15 2.859 1.266 5.225 1.93 7.192 1.23 3.643 3.67 6.536 5.578 9.383 1.907 2.846 3.28 5.634 4.012 8.834 1.028 4.499 1.346 10.446-.27 14.406-1.553 3.803-6.055 7.223-10.01 9.629-2.451 1.491-5.872 1.826-9.29 2.75-3.916 1.058-7.36 2.495-10.966 2.908-4.195.48-7.485 1.335-10.76-.06.136.057-1.525-1.159-2.501-1.883-.23 1.15 1.473 2.817 2.46 3.138 4.486 1.461 6.844 1.454 10.786 1.002 4.122-.472 7.817-1.88 11.496-2.875 3.071-.83 6.909-1.214 10.137-3.177 4.122-2.508 9.253-5.41 11.273-10.36 2.016-4.94 1.52-11.239.406-16.11-.866-3.787-2.822-6.838-4.756-9.724-1.933-2.886-2.577-3.999-4.177-6.91-1.22-2.217-2.61-5.416-3.194-7.11-.538-1.56-.969-3.735-.912-5.138.028-.696.283-1.426.49-1.904-1.933-.893-1.83-3.527-.304-2.834 1.591-1.436 1.442-4.8 1.562-5.381.102-.493 2.237 1.726 2.688 1.865.45.139.827.002 1.187-.514.552-.789.732-.282.899-1.123.14-1.261.184-2.221.068-3.011-.2-1.271 0-2.578-.842-3.856-1.5-2.28-4.37-4.313-7.414-4.974A8.565 8.565 0 0078.38-.2z"
          baselineShift="baseline"
          clipRule="nonzero"
          color="#000"
          colorInterpolation="sRGB"
          colorInterpolationFilters="linearRGB"
          colorRendering="auto"
          direction="ltr"
          display="inline"
          enableBackground="accumulate"
          fontFamily="sans-serif"
          fontSize="medium"
          fontStretch="normal"
          fontStyle="normal"
          fontVariant="normal"
          fontWeight="normal"
          imageRendering="auto"
          letterSpacing="normal"
          opacity="1"
          overflow="visible"
          shapeRendering="auto"
          textAnchor="start"
          textDecoration="none"
          textRendering="auto"
          visibility="visible"
          wordSpacing="normal"
          writingMode="lr-tb"
        ></path>
        <path
          fill="#f6db35"
          fillOpacity="1"
          fillRule="evenodd"
          stroke="#aad400"
          strokeLinecap="butt"
          strokeLinejoin="miter"
          strokeWidth="0.291"
          d="M80.27 17.618c.384 1.503 1.02 2.65 2.562 2.5l4.688 3.5c1.538.694 2.963 1.614 4.812 1.687l4 .938c.604.555 1.208.442 1.813 0l1.312-1.125c-.144-.855.318-2.055-.937-2.75l-4.375-2.438-4.438-5.187-1-3-1.312 1.312c-1.33.127-2.381-1.424-3.563-2.187l-.5 3.937-1.187 1.813c-1.08-.303-1.628.138-1.875 1z"
        ></path>
        <path
          fill="url(#pattern5807)"
          fillOpacity="1"
          fillRule="evenodd"
          stroke="none"
          strokeLinecap="butt"
          strokeLinejoin="miter"
          strokeWidth="0.291"
          d="M83.106 30.283s-1.875 1.07-2.917 1.149c-2.26.172-4.378-1.25-6.63-1.503-1.229-.137-3.712 0-3.712 0l-1.59-15.026c.597-2.868 1.3-5.869 2.828-9.9C74.78.514 77.286 1.377 80.1.85c3.284 1.277 6.436 2.67 7.867 5.568l.354 5.127-1.061 1.237-3.359-1.945c-.282 2.204-.485 4.505-1.68 5.569l-1.855 1.59 1.502 3.536z"
          opacity="0.31"
        ></path>
        <path
          fill="#fff"
          fillRule="evenodd"
          stroke="#fc0"
          strokeLinecap="butt"
          strokeLinejoin="miter"
          strokeWidth="0.291"
          d="M75.195 7.125c1.712-.353 2.178-.574 3.182-.84.497.123.98.168 1.59.973l.178 2.298-2.254.574-.928-.53-.752-1.237c-.368-.004-.648-.41-1.016-1.238z"
        ></path>
        <path
          fill="#0e0e4d"
          fillOpacity="1"
          fillRule="evenodd"
          stroke="none"
          strokeDashoffset="0"
          strokeLinecap="butt"
          strokeLinejoin="miter"
          strokeWidth="1.772"
          d="M41.926 75.643s1.898.866 2.808 1.523c.91.657 1.461 1.388 2.553 1.668 1.18.302 2.241.047 3.469-.106 1.228-.152 2.032-.981 2.032-.981s-1.108-.356-2.25-.214c-1.144.142-1.942.313-3.03.115-.572-.104-2.085-.875-2.926-1.482-.841-.607-2.656-.523-2.656-.523z"
          baselineShift="baseline"
          clipRule="nonzero"
          color="#000"
          colorInterpolation="sRGB"
          colorInterpolationFilters="linearRGB"
          colorRendering="auto"
          direction="ltr"
          display="inline"
          enableBackground="accumulate"
          fontFamily="sans-serif"
          fontSize="medium"
          fontStretch="normal"
          fontStyle="normal"
          fontVariant="normal"
          fontWeight="normal"
          imageRendering="auto"
          letterSpacing="normal"
          opacity="1"
          overflow="visible"
          shapeRendering="auto"
          textAnchor="start"
          textDecoration="none"
          textRendering="auto"
          visibility="visible"
          wordSpacing="normal"
          writingMode="lr-tb"
        ></path>
        <path
          fill="#e8ba15"
          fillOpacity="1"
          fillRule="evenodd"
          stroke="none"
          strokeDashoffset="0"
          strokeLinecap="butt"
          strokeLinejoin="miter"
          strokeWidth="1.772"
          d="M83.674 10.63a.52.52 0 00-.225.046c-.606.284-.64 1.182-.707 1.97-.15 1.78-.216 1.913-.715 3.24 0 0-1.845.136-2.12.764-.488 1.112-.15 2.144.486 2.971.392.51 1.125 1.02 1.654 1.082l1.168.139c1.406 1.412 4.792 4.004 6.643 4.606 1.85.602 1.648.118 4.146.705 1.296.305 1.664.242 2.34.71.676.466 1.198.286 1.607.2.41-.086.957-.252 1.2-.508.485-.51 1.149-1.18 1.12-2.02a3.343 3.343 0 00-.806-2.093c-.488-.569-1.081-.9-1.314-1.056-.467-.314-1.19-.351-2.14-1.04-.948-.688-2.146-1.65-2.634-2.244-.453-.551-2.787-2.688-3.248-3.69-.443-.962-.454-1.446-.787-2.24-.128-.217.048-.865-.276-.986-.864-.124-.807.224-1.242.687-.388.41-.208.926-.73.92-1.012-.6-1.255-.82-1.963-1.479 0 0-.882-.68-1.457-.683zm.596 1.063c.556.285 1.794 1.516 2.673 1.838.88.322 1.323-.84 1.625-1.101.132.326.326 1.422.452 2.222.205 1.306 2.549 3.015 3.24 3.857.726.884 1.74 1.775 2.744 2.49.991.706 2.214 1.261 3.147 2.002.202.236.971.903.796 1.287-.225.495-.682 1.078-.796 1.158-.115.08-.92.535-1.172.49-1.027-.181-2.158-.81-3.297-.986-.707-.335-3.363-1.602-4.152-2.156-1.879-1.32-6.06-4.243-7.092-5.845.825-.332 1.186-1.363 1.383-2.067.309-1.132.45-2.436.449-3.189zm-2.52 5.612c.642 1.05 5.4 4.671 7.389 5.952.686.442 1.993 1.017 3.1 1.482a8.778 8.778 0 01-1.448-.373c-2.138-.739-4.068-1.828-5.506-3.173-.571-.534-1.383-.922-1.875-1.556-.243-.036-1.168-.226-1.474-.534-.657-.864-.554-1.383-.186-1.798z"
          baselineShift="baseline"
          clipRule="nonzero"
          color="#000"
          colorInterpolation="sRGB"
          colorInterpolationFilters="linearRGB"
          colorRendering="auto"
          direction="ltr"
          display="inline"
          enableBackground="accumulate"
          fontFamily="sans-serif"
          fontSize="medium"
          fontStretch="normal"
          fontStyle="normal"
          fontVariant="normal"
          fontWeight="normal"
          imageRendering="auto"
          letterSpacing="normal"
          opacity="1"
          overflow="visible"
          shapeRendering="auto"
          textAnchor="start"
          textDecoration="none"
          textRendering="auto"
          visibility="visible"
          wordSpacing="normal"
          writingMode="lr-tb"
        ></path>
        <path
          fill="#8c7f13"
          fillOpacity="1"
          fillRule="evenodd"
          stroke="#5f5210"
          strokeLinecap="butt"
          strokeLinejoin="miter"
          strokeWidth="0.291"
          d="M85.55 15.336c.373.837.86 1.73 2.626 2-.076-.451-.444-1.082-.906-1.687-.361-.473-1.125-.313-1.72-.313z"
        ></path>
        <path
          fill="#ffba68"
          fillOpacity="1"
          fillRule="evenodd"
          stroke="#f0f"
          strokeLinecap="butt"
          strokeLinejoin="miter"
          strokeWidth="0.291"
          d="M45.457 80.555l1.625 6.938c1.008 3.104.42 5.251.625 7.875l4.438 5.812 4.75 1.125 3.25-1.187 5.125-.625-1.25-2.563-1.188-1.375.375-1.187-1.687-.25-5.563.562-4.562-2.312c-.27-2.233-.396-4.49-1.625-6.563.032-1.76.497-2.765-.063-5.562-.167-.798-.552-1.533-1.875-2-.853.284-1.831.255-2.375 1.312z"
        ></path>
        <path
          fill="#f60"
          fillOpacity="1"
          fillRule="evenodd"
          stroke="none"
          strokeDashoffset="0"
          strokeLinecap="butt"
          strokeLinejoin="miter"
          strokeWidth="1"
          d="M47.512 78.941c-.499.034-.995.197-1.448.412-.484.25-.893.737-.996 1.213 0 0 1.569 5.975 1.875 8.598.197 1.683.013 4.794.013 4.794.058 1.27.6 2.772 1.782 4.468 1.246 2.048 2.722 3.333 4.22 3.703.806.199 1.864.07 2.527.076.568.004 1.04.506 1.343.514l3.508-1.235c.926.008 1.634-.114 2.389-.158.797-.047 1.397-.495 2.329-.302.932.193 1.327.7 1.508.626.739-.542.463-.885.012-1.466-.46-.378-1.13-.407-1.3-.585-.58-1.11-1.179-2.582-1.99-3.228.454-.428.63-.464.575-.955-.103-.165-.552-.495-.695-.576-.572-.324-1.317-.356-3.047-.111-1.73.244-3.2.314-4.127.106-1.144-.282-2.288-.62-3.432-1.598.02-.877-.012-1.793-.7-2.572-.209-2.282-1.454-3.168-1.301-4.91.152-1.741-.127-3.47-.301-4.528-.174-1.06-.726-1.676-1.281-1.92a2.328 2.328 0 00-1.463-.366zm.154.893c.393.036.688.212.906.389.249.109.494.343.717 1.13.148 1.106.228 2.114.07 3.916-.157 1.803.299 3.445.836 5.083.538 1.637.57 2.41.524 3.105 1.769 2.016 3.276 2.422 4.931 2.623.958.217 2.746.184 5.26-.332.789.043 1.508-.142 1.71-.045-.164.274-.109.713-.372.979 1.06.766 1.594 1.273 2.185 2.86-2.267-.918-9.175-3.616-13.826-4.413-1.144.392-.24 1.552.43 2.625 3.791.713 7.052 1.541 10.843 2.6-.74.06-1.475.471-1.924.46l-3.015 1.131c-.687-1.038-.9-1.187-2.152-1.496-1.284-.317-2.157-.617-3.031-1.35-1.385-1.16-.93-1.403-1.698-2.502-.322-.462-1.093-1.603-1.407-2.396-.482-.938-.447-1.644-.49-2.639 0-.02-.1-1.572-.313-3.398-.317-2.706-1.506-5.589-1.475-5.832.056-.44-.434-1.926-.207-2.043.614-.386 1.105-.49 1.498-.455z"
          baselineShift="baseline"
          clipRule="nonzero"
          color="#000"
          colorInterpolation="sRGB"
          colorInterpolationFilters="linearRGB"
          colorRendering="auto"
          direction="ltr"
          display="inline"
          enableBackground="accumulate"
          fontFamily="sans-serif"
          fontSize="medium"
          fontStretch="normal"
          fontStyle="normal"
          fontVariant="normal"
          fontWeight="normal"
          imageRendering="auto"
          letterSpacing="normal"
          opacity="1"
          overflow="visible"
          shapeRendering="auto"
          textAnchor="start"
          textDecoration="none"
          textRendering="auto"
          visibility="visible"
          wordSpacing="normal"
          writingMode="lr-tb"
        ></path>
        <path
          fill="#f60"
          fillOpacity="1"
          fillRule="evenodd"
          stroke="none"
          strokeDashoffset="0"
          strokeLinecap="butt"
          strokeLinejoin="miter"
          strokeWidth="1.063"
          d="M65.848 82.383l-.809.232.447 2.75c.653 1.178.384 2.18.19 3.197l.763.39c.125.234.456.46.614.866l3.941.297c1.648.124 2.913-.741 5.166-.943.44-.04.949-.158 1.248-.137-.07.198-.02.343-.281.508-.328.667-.228 1.101-.395 1.72.1.802-.276.785-.412 1.456-2.293-1.073-3.726-1.795-6.708-2.233l-3.815-.56c-1.162-.223-.467.88-.196 1.651 3.02.765 5.737 1.337 8.83 2.4-1.542.468-3.018 1.033-5.122.699-.205-.118-.843.003-1.784-.364-1.38-.538-2.269-1.194-2.626-1.544-.927-.911-1.087-1.614-1.256-2.552-.398-.535-.977-.939-.977-.939-.375-.902-.373-.698-.805.06-.23.27-.717.84-.982.825-.199-.01-.194-.683.039-1.031l1.056-1.58c.43-1.03.293-3.372.153-4.483l-1.085.102c.07 1.42.229 2.323-.218 3.763l-.527 2.045c-.107.413-.317.909-.236 1.301.04.197.135.546.308.715.173.17.454.039.654-.006.48-.107.706-.224 1.006-.504.141.313.247.517.315.733.05.16-.03.225-.084.64-.055.416.08.991.62 1.657 1.183 1.45 2.572 2.332 4.09 2.777.74.216 1.428.236 2.485.437-.077-.565-.112-1.148-.592-1.552 2.04.563 3.966.19 5.84-.617l1.992-.135c.956-.065 1.358.228 2.243.396.21-.815-.212-1.097-.854-1.402l-1.01-.48c.07-.436.506-1.129.444-1.715.155-.435.39-1.605.547-1.967.585.343 1.247.48 1.59.255.343-.224-.318-.901-.738-1.242-.298-.285-.858-.494-1.354-.529-.496-.035-.923.06-1.28.092-2.435.218-4.192.933-5.476.97l-3.007.089c-.073-.38-.486-.77-.715-1.022.205-1 .252-1.808-.083-2.725.082-1.24-.426-1.987-1.154-2.761z"
          baselineShift="baseline"
          clipRule="nonzero"
          color="#000"
          colorInterpolation="sRGB"
          colorInterpolationFilters="linearRGB"
          colorRendering="auto"
          direction="ltr"
          display="inline"
          enableBackground="accumulate"
          fontFamily="sans-serif"
          fontSize="medium"
          fontStretch="normal"
          fontStyle="normal"
          fontVariant="normal"
          fontWeight="normal"
          imageRendering="auto"
          letterSpacing="normal"
          opacity="1"
          overflow="visible"
          shapeRendering="auto"
          textAnchor="start"
          textDecoration="none"
          textRendering="auto"
          visibility="visible"
          wordSpacing="normal"
          writingMode="lr-tb"
        ></path>
        <path
          fill="#370000"
          fillOpacity="1"
          fillRule="evenodd"
          stroke="none"
          strokeDashoffset="0"
          strokeLinecap="butt"
          strokeLinejoin="miter"
          strokeWidth="2.835"
          d="M46.803 48.578c-4.435.173-7.078 1.456-10.483 3.887-2.055 1.467-2.56 3.426-3.642 4.597-1.082 1.172-2.67 1.927-3.164 2.14-1.46.626-2.73.537-3.567.226-.837-.312-1.411-1.8-2.074-2.575-.836-.978-1.3-2.1-3.04-1.798 1.15.934 2.003 1.687 2.405 2.773.628 1.695.648 1.708 1.846 2.506 1.618 1.079 3.287 1.142 4.691.637 1.753-.63 2.52-.985 3.674-2.235s2.106-3.17 3.832-4.402c3.87-2.763 6.021-3.425 11.567-3.936 3.909-.36 12.588 1.423 14.315 1.316-2.4-2.033-6.051-2.414-10.347-2.94-1.526-.188-4.535-.254-6.013-.196z"
          baselineShift="baseline"
          clipRule="nonzero"
          color="#000"
          colorInterpolation="sRGB"
          colorInterpolationFilters="linearRGB"
          colorRendering="auto"
          direction="ltr"
          display="inline"
          enableBackground="accumulate"
          fontFamily="sans-serif"
          fontSize="medium"
          fontStretch="normal"
          fontStyle="normal"
          fontVariant="normal"
          fontWeight="normal"
          imageRendering="auto"
          letterSpacing="normal"
          opacity="1"
          overflow="visible"
          shapeRendering="auto"
          textAnchor="start"
          textDecoration="none"
          textRendering="auto"
          visibility="visible"
          wordSpacing="normal"
          writingMode="lr-tb"
        ></path>
        <path
          fill="#142d4e"
          fillOpacity="1"
          fillRule="evenodd"
          stroke="none"
          strokeDashoffset="0"
          strokeLinecap="butt"
          strokeLinejoin="miter"
          strokeWidth="1.772"
          d="M25.145 66.18c.436.282 3.043 1.02 3.597 1.938.344.57.294.92.522 1.235.339.469.505 1.095 1.119 1.211.496.094 1.122-.118 1.84-.225.717-.107 1.868-.37 2.286-.276.969.218 2.067.671 3.36 1.357 1.292.686 4.026 2.697 4.026 2.697.243-.376-2.552-3.053-3.368-3.613-1.258-.863-1.958-1.452-3.308-1.757-.902-.204-2.062-.144-2.734-.043-.672.1-1.39.76-1.647.477-.328-.358-.347-.954-.54-1.218-.191-.265-.61-.658-1.062-.994-.967-.721-3.981-1.099-4.091-.79z"
          baselineShift="baseline"
          clipRule="nonzero"
          color="#000"
          colorInterpolation="sRGB"
          colorInterpolationFilters="linearRGB"
          colorRendering="auto"
          direction="ltr"
          display="inline"
          enableBackground="accumulate"
          fontFamily="sans-serif"
          fontSize="medium"
          fontStretch="normal"
          fontStyle="normal"
          fontVariant="normal"
          fontWeight="normal"
          imageRendering="auto"
          letterSpacing="normal"
          opacity="1"
          overflow="visible"
          shapeRendering="auto"
          textAnchor="start"
          textDecoration="none"
          textRendering="auto"
          visibility="visible"
          wordSpacing="normal"
          writingMode="lr-tb"
        ></path>
        <path
          fill="#214420"
          fillOpacity="1"
          fillRule="evenodd"
          stroke="none"
          strokeDashoffset="0"
          strokeLinecap="butt"
          strokeLinejoin="miter"
          strokeWidth="1"
          d="M77.861 5.88c-.447.036-1.545.454-1.736.68-.17.198-1.375.323-1.375.323.292.79.692 1.447 1.13 1.722.438.274.375 1.098.849 1.352.812.436 1.293.595 2.185.525.224-.018 1.23-.45 1.86-.537-.257-.665-.114-1.124-.217-2.023-.106-.926-.438-1.237-1.232-1.689-.526-.299-1.103-.38-1.464-.352zm1.114 1.128c.496.247.58.745.639 1.33.03.3-.045.78-.321.885-.678.255-1.413.132-2.077-.232-.304-.166-.677-.615-.678-.952-.378-.349-.79-.368-.848-.604.311-.128.812-.05.952-.088.299-.082.694-.445.983-.539.31-.1 1.054.052 1.35.2z"
          baselineShift="baseline"
          clipRule="nonzero"
          color="#000"
          colorInterpolation="sRGB"
          colorInterpolationFilters="linearRGB"
          colorRendering="auto"
          direction="ltr"
          display="inline"
          enableBackground="accumulate"
          fontFamily="sans-serif"
          fontSize="medium"
          fontStretch="normal"
          fontStyle="normal"
          fontVariant="normal"
          fontWeight="normal"
          imageRendering="auto"
          letterSpacing="normal"
          opacity="1"
          overflow="visible"
          shapeRendering="auto"
          textAnchor="start"
          textDecoration="none"
          textRendering="auto"
          visibility="visible"
          wordSpacing="normal"
          writingMode="lr-tb"
        ></path>
        <path
          fill="#000"
          fillOpacity="1"
          stroke="none"
          strokeDashoffset="0"
          strokeLinecap="round"
          strokeLinejoin="round"
          strokeWidth="0.354"
          d="M77.029 7.349a1.46 1.46 0 10.864-.65c.382.54.981.943.727 1.882-.44-.48-.675-1.11-1.591-1.232z"
          display="inline"
          opacity="1"
        ></path>
      </g>
    </svg>