<svg
xmlns="http://www.w3.org/2000/svg"
xmlnsXlink="http://www.w3.org/1999/xlink"
width="32mm"
height="31mm"
version="1.1"
viewBox="0 0 113.386 109.843"
>
<defs>
   <linearGradient id="linearGradient6893">
      <stop offset="0" stopColor="#ff4e56" stopOpacity="1"></stop>
      <stop offset="0.618" stopColor="#ff5d5b" stopOpacity="1"></stop>
      <stop offset="1" stopColor="#cf0502" stopOpacity="1"></stop>
   </linearGradient>
   <pattern
      id="pattern6566"
      patternTransform="matrix(1.59427 0 0 1.17884 .365 -.343)"
      xlinkHref="#Polkadots-med"
   ></pattern>
   <pattern
      id="Polkadots-med"
      width="10"
      height="10"
      patternTransform="scale(10)"
      patternUnits="userSpaceOnUse"
   >
      <circle
      cx="2.567"
      cy="0.81"
      r="0.15"
      fill="#000"
      stroke="none"
      ></circle>
      <circle
      cx="3.048"
      cy="2.33"
      r="0.15"
      fill="#000"
      stroke="none"
      ></circle>
      <circle
      cx="4.418"
      cy="2.415"
      r="0.15"
      fill="#000"
      stroke="none"
      ></circle>
      <circle
      cx="1.844"
      cy="3.029"
      r="0.15"
      fill="#000"
      stroke="none"
      ></circle>
      <circle
      cx="6.08"
      cy="1.363"
      r="0.15"
      fill="#000"
      stroke="none"
      ></circle>
      <circle
      cx="5.819"
      cy="4.413"
      r="0.15"
      fill="#000"
      stroke="none"
      ></circle>
      <circle
      cx="4.305"
      cy="4.048"
      r="0.15"
      fill="#000"
      stroke="none"
      ></circle>
      <circle
      cx="5.541"
      cy="3.045"
      r="0.15"
      fill="#000"
      stroke="none"
      ></circle>
      <circle
      cx="4.785"
      cy="5.527"
      r="0.15"
      fill="#000"
      stroke="none"
      ></circle>
      <circle
      cx="2.667"
      cy="5.184"
      r="0.15"
      fill="#000"
      stroke="none"
      ></circle>
      <circle
      cx="7.965"
      cy="1.448"
      r="0.15"
      fill="#000"
      stroke="none"
      ></circle>
      <circle
      cx="7.047"
      cy="5.049"
      r="0.15"
      fill="#000"
      stroke="none"
      ></circle>
      <circle
      cx="4.34"
      cy="0.895"
      r="0.15"
      fill="#000"
      stroke="none"
      ></circle>
      <circle
      cx="7.125"
      cy="0.34"
      r="0.15"
      fill="#000"
      stroke="none"
      ></circle>
      <circle
      cx="9.553"
      cy="1.049"
      r="0.15"
      fill="#000"
      stroke="none"
      ></circle>
      <circle
      cx="7.006"
      cy="2.689"
      r="0.15"
      fill="#000"
      stroke="none"
      ></circle>
      <circle
      cx="8.909"
      cy="2.689"
      r="0.15"
      fill="#000"
      stroke="none"
      ></circle>
      <circle
      cx="9.315"
      cy="4.407"
      r="0.15"
      fill="#000"
      stroke="none"
      ></circle>
      <circle
      cx="7.82"
      cy="3.87"
      r="0.15"
      fill="#000"
      stroke="none"
      ></circle>
      <circle
      cx="8.27"
      cy="5.948"
      r="0.15"
      fill="#000"
      stroke="none"
      ></circle>
      <circle
      cx="7.973"
      cy="7.428"
      r="0.15"
      fill="#000"
      stroke="none"
      ></circle>
      <circle
      cx="9.342"
      cy="8.072"
      r="0.15"
      fill="#000"
      stroke="none"
      ></circle>
      <circle
      cx="8.206"
      cy="9.315"
      r="0.15"
      fill="#000"
      stroke="none"
      ></circle>
      <circle
      cx="9.682"
      cy="9.475"
      r="0.15"
      fill="#000"
      stroke="none"
      ></circle>
      <circle
      cx="9.688"
      cy="6.186"
      r="0.15"
      fill="#000"
      stroke="none"
      ></circle>
      <circle
      cx="3.379"
      cy="6.296"
      r="0.15"
      fill="#000"
      stroke="none"
      ></circle>
      <circle
      cx="2.871"
      cy="8.204"
      r="0.15"
      fill="#000"
      stroke="none"
      ></circle>
      <circle
      cx="4.59"
      cy="8.719"
      r="0.15"
      fill="#000"
      stroke="none"
      ></circle>
      <circle
      cx="3.181"
      cy="9.671"
      r="0.15"
      fill="#000"
      stroke="none"
      ></circle>
      <circle
      cx="5.734"
      cy="7.315"
      r="0.15"
      fill="#000"
      stroke="none"
      ></circle>
      <circle
      cx="6.707"
      cy="6.513"
      r="0.15"
      fill="#000"
      stroke="none"
      ></circle>
      <circle
      cx="5.73"
      cy="9.67"
      r="0.15"
      fill="#000"
      stroke="none"
      ></circle>
      <circle
      cx="6.535"
      cy="8.373"
      r="0.15"
      fill="#000"
      stroke="none"
      ></circle>
      <circle
      cx="4.37"
      cy="7.154"
      r="0.15"
      fill="#000"
      stroke="none"
      ></circle>
      <circle
      cx="0.622"
      cy="7.25"
      r="0.15"
      fill="#000"
      stroke="none"
      ></circle>
      <circle
      cx="0.831"
      cy="5.679"
      r="0.15"
      fill="#000"
      stroke="none"
      ></circle>
      <circle
      cx="1.257"
      cy="8.519"
      r="0.15"
      fill="#000"
      stroke="none"
      ></circle>
      <circle
      cx="1.989"
      cy="6.877"
      r="0.15"
      fill="#000"
      stroke="none"
      ></circle>
      <circle
      cx="0.374"
      cy="3.181"
      r="0.15"
      fill="#000"
      stroke="none"
      ></circle>
      <circle
      cx="1.166"
      cy="1.664"
      r="0.15"
      fill="#000"
      stroke="none"
      ></circle>
      <circle
      cx="1.151"
      cy="0.093"
      r="0.15"
      fill="#000"
      stroke="none"
      ></circle>
      <circle
      cx="1.151"
      cy="10.093"
      r="0.15"
      fill="#000"
      stroke="none"
      ></circle>
      <circle
      cx="1.302"
      cy="4.451"
      r="0.15"
      fill="#000"
      stroke="none"
      ></circle>
      <circle
      cx="3.047"
      cy="3.763"
      r="0.15"
      fill="#000"
      stroke="none"
      ></circle>
   </pattern>
   <pattern
      id="pattern6397"
      patternTransform="matrix(1.05 0 0 1 .365 .657)"
      xlinkHref="#Polkadots-large"
   ></pattern>
   <pattern
      id="Polkadots-large"
      width="10"
      height="10"
      patternTransform="scale(10)"
      patternUnits="userSpaceOnUse"
   >
      <circle
      cx="2.567"
      cy="0.81"
      r="0.45"
      fill="#000"
      stroke="none"
      ></circle>
      <circle
      cx="3.048"
      cy="2.33"
      r="0.45"
      fill="#000"
      stroke="none"
      ></circle>
      <circle
      cx="4.418"
      cy="2.415"
      r="0.45"
      fill="#000"
      stroke="none"
      ></circle>
      <circle
      cx="1.844"
      cy="3.029"
      r="0.45"
      fill="#000"
      stroke="none"
      ></circle>
      <circle
      cx="6.08"
      cy="1.363"
      r="0.45"
      fill="#000"
      stroke="none"
      ></circle>
      <circle
      cx="5.819"
      cy="4.413"
      r="0.45"
      fill="#000"
      stroke="none"
      ></circle>
      <circle
      cx="4.305"
      cy="4.048"
      r="0.45"
      fill="#000"
      stroke="none"
      ></circle>
      <circle
      cx="5.541"
      cy="3.045"
      r="0.45"
      fill="#000"
      stroke="none"
      ></circle>
      <circle
      cx="4.785"
      cy="5.527"
      r="0.45"
      fill="#000"
      stroke="none"
      ></circle>
      <circle
      cx="2.667"
      cy="5.184"
      r="0.45"
      fill="#000"
      stroke="none"
      ></circle>
      <circle
      cx="7.965"
      cy="1.448"
      r="0.45"
      fill="#000"
      stroke="none"
      ></circle>
      <circle
      cx="7.047"
      cy="5.049"
      r="0.45"
      fill="#000"
      stroke="none"
      ></circle>
      <circle
      cx="4.34"
      cy="0.895"
      r="0.45"
      fill="#000"
      stroke="none"
      ></circle>
      <circle
      cx="7.125"
      cy="0.34"
      r="0.45"
      fill="#000"
      stroke="none"
      ></circle>
      <circle
      cx="9.553"
      cy="1.049"
      r="0.45"
      fill="#000"
      stroke="none"
      ></circle>
      <circle
      cx="7.006"
      cy="2.689"
      r="0.45"
      fill="#000"
      stroke="none"
      ></circle>
      <circle
      cx="8.909"
      cy="2.689"
      r="0.45"
      fill="#000"
      stroke="none"
      ></circle>
      <circle
      cx="9.315"
      cy="4.407"
      r="0.45"
      fill="#000"
      stroke="none"
      ></circle>
      <circle
      cx="7.82"
      cy="3.87"
      r="0.45"
      fill="#000"
      stroke="none"
      ></circle>
      <circle
      cx="8.27"
      cy="5.948"
      r="0.45"
      fill="#000"
      stroke="none"
      ></circle>
      <circle
      cx="7.973"
      cy="7.428"
      r="0.45"
      fill="#000"
      stroke="none"
      ></circle>
      <circle
      cx="9.342"
      cy="8.072"
      r="0.45"
      fill="#000"
      stroke="none"
      ></circle>
      <circle
      cx="8.206"
      cy="9.315"
      r="0.45"
      fill="#000"
      stroke="none"
      ></circle>
      <circle
      cx="9.682"
      cy="9.475"
      r="0.45"
      fill="#000"
      stroke="none"
      ></circle>
      <circle
      cx="9.688"
      cy="6.186"
      r="0.45"
      fill="#000"
      stroke="none"
      ></circle>
      <circle
      cx="3.379"
      cy="6.296"
      r="0.45"
      fill="#000"
      stroke="none"
      ></circle>
      <circle
      cx="2.871"
      cy="8.204"
      r="0.45"
      fill="#000"
      stroke="none"
      ></circle>
      <circle
      cx="4.59"
      cy="8.719"
      r="0.45"
      fill="#000"
      stroke="none"
      ></circle>
      <circle
      cx="3.181"
      cy="9.671"
      r="0.45"
      fill="#000"
      stroke="none"
      ></circle>
      <circle
      cx="5.734"
      cy="7.315"
      r="0.45"
      fill="#000"
      stroke="none"
      ></circle>
      <circle
      cx="6.707"
      cy="6.513"
      r="0.45"
      fill="#000"
      stroke="none"
      ></circle>
      <circle
      cx="5.73"
      cy="9.67"
      r="0.45"
      fill="#000"
      stroke="none"
      ></circle>
      <circle
      cx="6.535"
      cy="8.373"
      r="0.45"
      fill="#000"
      stroke="none"
      ></circle>
      <circle
      cx="4.37"
      cy="7.154"
      r="0.45"
      fill="#000"
      stroke="none"
      ></circle>
      <circle
      cx="0.622"
      cy="7.25"
      r="0.45"
      fill="#000"
      stroke="none"
      ></circle>
      <circle
      cx="0.831"
      cy="5.679"
      r="0.45"
      fill="#000"
      stroke="none"
      ></circle>
      <circle
      cx="1.257"
      cy="8.519"
      r="0.45"
      fill="#000"
      stroke="none"
      ></circle>
      <circle
      cx="1.989"
      cy="6.877"
      r="0.45"
      fill="#000"
      stroke="none"
      ></circle>
      <circle
      cx="0.374"
      cy="3.181"
      r="0.45"
      fill="#000"
      stroke="none"
      ></circle>
      <circle
      cx="1.166"
      cy="1.664"
      r="0.45"
      fill="#000"
      stroke="none"
      ></circle>
      <circle
      cx="1.151"
      cy="0.093"
      r="0.45"
      fill="#000"
      stroke="none"
      ></circle>
      <circle
      cx="1.151"
      cy="10.093"
      r="0.45"
      fill="#000"
      stroke="none"
      ></circle>
      <circle
      cx="1.302"
      cy="4.451"
      r="0.45"
      fill="#000"
      stroke="none"
      ></circle>
      <circle
      cx="3.047"
      cy="3.763"
      r="0.45"
      fill="#000"
      stroke="none"
      ></circle>
   </pattern>
   <radialGradient
      id="radialGradient6899"
      cx="94.715"
      cy="17.104"
      r="7.685"
      fx="94.715"
      fy="17.104"
      gradientTransform="matrix(.99684 .07942 -.08133 1.0209 1.69 -6.983)"
      gradientUnits="userSpaceOnUse"
      xlinkHref="#linearGradient6893"
   ></radialGradient>
</defs>
<g
   strokeDasharray="none"
   strokeMiterlimit="4"
   strokeOpacity="1"
   transform="translate(2.91 1.467)"
>
   <path
      fill="#9c862b"
      fillOpacity="1"
      fillRule="evenodd"
      stroke="#6f0"
      strokeLinecap="butt"
      strokeLinejoin="miter"
      strokeWidth="0.291"
      d="M56.226 79.838l6.01.884c3.095 3.609 5.964 7.218 8.353 10.827.523-.795.763-1.59 3.094-2.386 1.492-.321 3.03.309 4.64 2.342l-2.828-.088-2.254 1.414 8.574 1.635c1.996 1.709 2.043 3.418 2.342 5.127l-4.287-2.961c-2.38.484-5.143-1.572-7.513-1.15.784 1.415 1.759 2.83 1.414 4.243l-.574 1.282c-1.236-2.438-2.79-3.128-4.243-4.375l-3.226-3.447-3.58 1.149c-.775.553-.89 1.547-.972 2.563-.668.06-1.004-.877-1.326-1.856-.533-.914.608-1.41 1.414-1.989.805-1.113 2.029-1.947 4.243-2.121l-3.359-3.315z"
   ></path>
   <path
      fill="#2c2a1c"
      fillOpacity="1"
      fillRule="evenodd"
      stroke="none"
      strokeDashoffset="0"
      strokeLinecap="butt"
      strokeLinejoin="miter"
      strokeWidth="1.772"
      d="M57.617 80.435l-1.985-.163c1.526 1.994 1.763 2.617 4.579 5.981.12.145 4.028 3.588 4.4 4.296-1.972.422-3.306.897-3.91 2.467-1.323.418-1.438 1.644-1.327 2.354.115.731.462 1.281.989 1.596l1.276.763-.089-.991c-.19-2.125 1.316-2.336 2.226-2.192.495.079 1.321-.45 1.958-.546 1.086 1.087 1.947 3.01 3.394 3.834 1.447.824 2.638 1.674 3.381 3.55l.39.986.901-.558c1.417-.88 0-4.754-.657-5.853 1.06.168 1.551.43 1.958.534 1.294.334 2.715.746 4.005.944 1.29.197 2.474.758 3.718 1.922 0 0 1.272 1.326 1.598 1.189.326-.138.004-1.996.004-1.996-.048-1.138-.561-2.135-1.147-3.04-.586-.903-1.497-1.657-2.114-1.762l-6.684-1.142c.099-.05.46-.691 1.708-.802.975-.086 2.66.519 3.126.417-.21-.566-1.656-2.058-2.407-2.707-1.05-.905-2.27-1.06-3.502-.884-1.122.16-2.299 1.36-2.953 2.197 0 0-2.5-3.823-3.87-5.65-1.314-1.755-4.164-5.092-4.164-5.092l-1.37 1.123s3.191 2.916 4.592 4.607c1.82 2.199 5.077 7.055 5.077 7.055.1-.398.216-.8.646-1.271.803-.88 1.314-1.55 2.022-1.697.708-.148 1.761-.123 1.958-.093.432.065 1.717.688 2.034 1.209-.947-.428-2.132-.085-2.642.148-1.307.594-1.73 1.018-2.278 1.592.366.576 3.104.818 3.584.922l4.855 1.06c.663.145 1.778 1.636 1.913 2.887-.676-.33-2.578-1.55-3.593-1.665-1.014-.116-2.162-.171-3.477-.51-1.316-.338-1.973-.896-3.317-.642l-1.825-1.345-.258.23c1.151 1.124 1.768 2.355 2.524 3.528.502.778.573 1.757.475 2.231-.902-1.406-1.967-2.427-3.416-3.32-1.449-.892-2.527-2.288-3.843-3.533-1.004.27-2.083.279-2.852.531-.57.187-2.63 1.431-2.27 2.969-.439-.075-1.41-1.995.56-2.67a4.265 4.265 0 012.529-1.826c1.383-.363 1.838-.215 1.925-.68.088-.465-1.326-1.505-1.802-1.921-.467-.408-2.662-3.164-2.727-3.25-1.895-2.506-2.55-3.547-3.826-5.321z"
      baselineShift="baseline"
      clipRule="nonzero"
      color="#000"
      colorInterpolation="sRGB"
      colorInterpolationFilters="linearRGB"
      colorRendering="auto"
      direction="ltr"
      display="inline"
      enableBackground="accumulate"
      fontFamily="sans-serif"
      fontSize="medium"
      fontStretch="normal"
      fontStyle="normal"
      fontVariant="normal"
      fontWeight="normal"
      imageRendering="auto"
      letterSpacing="normal"
      opacity="1"
      overflow="visible"
      shapeRendering="auto"
      textAnchor="start"
      textDecoration="none"
      textRendering="auto"
      visibility="visible"
      wordSpacing="normal"
      writingMode="lr-tb"
   ></path>
   <path
      fill="#ba9509"
      fillOpacity="1"
      fillRule="evenodd"
      stroke="#a40"
      strokeLinecap="butt"
      strokeLinejoin="miter"
      strokeWidth="0.291"
      d="M37.62 83.683l2.564 10.341-3.624 1.9c-.988 1.503-1.78 3.087-1.37 5.171 1.785-1.456 3.727-3.7 5.303-4.11l5.127 3.536c1.001 1.009 1.98 2.03 2.519 3.27.425-.63.864-1.237 1.06-2.21l-1.9-2.784-1.414-1.326 1.767.575 3.58 1.812 4.685.663 2.386 1.193c.242-1.096-.682-2.483-1.326-3.8-2.136-.67-4.272-.795-6.408-1.15-1.262-.178-2.599.45-3.756-.884l3.403-1.016 3.05.884c-.61-1.015-.92-2.154-2.873-2.608l-4.862.796c-.368-.993-.808-1.946-1.989-2.475 0 0-1.325-7.778-1.723-7.734-.398.044-4.199-.044-4.199-.044z"
   ></path>
   <path
      fill="#fff"
      fillRule="evenodd"
      stroke="#fc0"
      strokeLinecap="butt"
      strokeLinejoin="miter"
      strokeWidth="0.291"
      d="M96.08 13.395c-3.041-1.305-6.082-1.036-9.122-.675-3.904 1.426-6.812 3.474-9.91 5.405l-6.305 8.445-15.765 3.04c-4.88 2.024-9.759 2.424-14.638 1.69-3.99-.208-6.82-2.22-9.91-3.83-2.345-2.965-4.232-6.515-7.657-8.107-1.408-2.604-2.99-5.069-5.968-6.418-2.75-2.368-5.448-4.515-7.882-5.518-1.47.034-2.862.148-2.252 2.365l1.689 3.603c-1.436-.174-2.854-.72-4.392 1.239-1.37.36-2.555.86-2.252 2.477.722 1.164 1.963 2.327 2.027 3.491-.567 1.803.124 3.228.563 4.73-.277 1.178-.198 1.84 1.206 3.754l1.046 3.34c-2.536 1.637-1.677 3.074-.676 4.504-1.238 1.426-2.287 2.869-1.126 4.504l2.703 2.477c-.258 5.18 1.591 5.488 2.928 6.982.004 2.254 1.236 4.004 3.04 5.517-.322.912-.745 1.772-.456 2.988 1.41.55 2.852 1.22 4.06.954-.216 1.959-1.014 3.983.562 5.742l2.703.45c.826 1.874 1.052 4.098 3.04 5.293l3.941-.45c1.224 1.498 2.514 2.842 4.054 3.603.86 2.739 2.42 5.07 5.293 6.644l2.026 1.69 3.942.337 2.364-3.603 6.644-4.842c1.222 2.08 2.897 3.709 5.18 4.729l5.292.676c1.308-1.486 1.98-3.29 1.802-5.518l.225-5.405 5.968-1.69c3.508-1.472 6.982-3.023 9.347-7.093l8.107-12.837 5.067-14.639c.617-2.91 1.543-6.511.543-8.613l-1.995.631c-1.394-.14-.653-1.177-.757-2.31-1.195-.96-1.985-2.091-1.91-3.582.58-1.52 1.192-2.977 2.19-3.663 1.278-1.439 3.437-1.873 5.42-2.507z"
   ></path>
   <path
      fill="#a0381e"
      fillOpacity="1"
      fillRule="evenodd"
      stroke="#fc0"
      strokeLinecap="butt"
      strokeLinejoin="miter"
      strokeWidth="0.291"
      d="M96.285 13.223c-3.04-1.305-6.08-1.036-9.121-.675-3.904 1.426-6.812 3.474-9.91 5.405l-6.305 8.445-15.765 3.04c-4.88 2.024-9.76 2.425-14.639 1.69-3.99-.208-6.82-2.22-9.909-3.829-2.346-2.966-4.232-6.515-7.657-8.107-1.408-2.605-2.99-5.07-5.968-6.419-2.75-2.368-5.448-4.515-7.883-5.518-1.47.034-2.862.148-2.252 2.365l1.69 3.603c-1.436-.173-2.855-.72-4.392 1.24-1.37.36-2.556.86-2.252 2.476.722 1.164 1.963 2.328 2.027 3.491-.568 1.803.124 3.228.563 4.73-.277 1.178-.198 1.84 1.205 3.754l1.047 3.34c-2.536 1.637-1.677 3.075-.676 4.504-1.239 1.426-2.287 2.87-1.126 4.504l2.703 2.477c-.258 5.18 1.591 5.488 2.927 6.982.005 2.255 1.237 4.004 3.04 5.518-.321.91-.744 1.771-.455 2.988 1.41.548 2.852 1.22 4.059.953-.215 1.959-1.013 3.983.563 5.743l2.703.45c.826 1.873 1.052 4.097 3.04 5.293l3.941-.45c1.224 1.498 2.514 2.841 4.054 3.602.859 2.739 2.42 5.071 5.292 6.644l2.027 1.69 3.941.337 2.365-3.603 6.644-4.842c1.222 2.08 2.897 3.71 5.18 4.73l5.292.675c1.308-1.486 1.98-3.29 1.802-5.518l.225-5.405 5.968-1.69c3.508-1.472 6.981-3.023 9.346-7.093l8.108-12.837 5.067-14.639c.617-2.91 1.543-6.511.543-8.612l-1.995.63c-1.394-.14-.654-1.177-.757-2.309-1.195-.962-1.986-2.092-1.91-3.583.58-1.52 1.191-2.977 2.189-3.663 1.279-1.439 3.438-1.872 5.42-2.507z"
   ></path>
   <path
      fill="url(#pattern6397)"
      fillOpacity="1"
      fillRule="evenodd"
      stroke="#fc0"
      strokeLinecap="butt"
      strokeLinejoin="miter"
      strokeWidth="0.291"
      d="M96.185 13.555c-3.04-1.306-6.081-1.036-9.121-.676-3.904 1.426-6.812 3.475-9.91 5.405l-6.306 8.446-15.764 3.04c-4.88 2.023-9.76 2.424-14.639 1.689-3.99-.208-6.82-2.22-9.91-3.829-2.345-2.965-4.231-6.515-7.656-8.107-1.408-2.605-2.991-5.07-5.968-6.419-2.75-2.368-5.448-4.514-7.883-5.517-1.47.033-2.862.147-2.252 2.364l1.69 3.604c-1.437-.174-2.855-.721-4.392 1.238-1.371.361-2.556.861-2.252 2.478.722 1.163 1.963 2.327 2.026 3.49-.567 1.803.125 3.229.563 4.73-.277 1.178-.197 1.84 1.206 3.755l1.047 3.34c-2.536 1.636-1.677 3.074-.676 4.503-1.239 1.427-2.288 2.87-1.126 4.505l2.702 2.477c-.257 5.179 1.592 5.488 2.928 6.981.005 2.255 1.237 4.004 3.04 5.518-.321.911-.744 1.772-.456 2.988 1.411.549 2.853 1.22 4.06.953-.216 1.96-1.014 3.983.563 5.743l2.702.45c.827 1.874 1.053 4.097 3.04 5.293l3.942-.45c1.224 1.498 2.514 2.842 4.054 3.603.859 2.738 2.42 5.07 5.292 6.644l2.027 1.689 3.941.337 2.365-3.603 6.644-4.842c1.222 2.081 2.896 3.71 5.18 4.73l5.292.675c1.308-1.485 1.98-3.29 1.802-5.518l.225-5.405 5.968-1.689c3.508-1.472 6.981-3.023 9.346-7.094l8.108-12.837L92.694 33.6c.617-2.91 1.543-6.512.542-8.613l-1.995.63c-1.393-.14-.653-1.176-.756-2.309-1.195-.961-1.986-2.092-1.91-3.583.58-1.52 1.191-2.977 2.189-3.662 1.279-1.44 3.437-1.873 5.42-2.507z"
      opacity="0.299"
   ></path>
   <path
      fill="#fff"
      fillRule="evenodd"
      stroke="red"
      strokeLinecap="butt"
      strokeLinejoin="miter"
      strokeWidth="0.291"
      d="M92.465 12.619l-2.916-2.74c-.283-1.98.384-2.375.75-3.27 1.155-1.277 2.397-.372 3.669 1.28l1.06-4.374c.707.723 1.583 1.276 1.503 2.784-.2 1.393-.79 3.239-.353 3.889.648-.375 1.296-1.766 1.944-3.05l.928-2.253c.28.766.996 1.22.53 2.519-.41 2.09-1.103 4.715-.397 4.684 2.305-1.291 1.709-3.437 2.21-5.259 1.343.767 1.91 2.078 2.077 3.668l-1.9 3.536c.78 1.192 1.308 2.403.574 3.712l-1.282-.22-.751 1.37-3.05.397.752 1.458 2.298.884c.434 1.446.207 2.513-.177 3.492-.824 1.166-1.579 2.564-2.74 2.607-1.397.17-2.566-.229-3.491-1.237l-.84-1.768c-.736.964-1.473.813-2.21.751l-.707-3.05c-.554-.693-1.31-.784-1.546-2.43l1.458-3.403 2.077-1.944c1.409-.707 3.046-.842 4.685-.973z"
   ></path>
   <path
      fill="url(#radialGradient6899)"
      fillOpacity="1"
      fillRule="evenodd"
      stroke="red"
      strokeLinecap="butt"
      strokeLinejoin="miter"
      strokeWidth="0.291"
      d="M92.496 12.673l-2.917-2.74c-.283-1.979.384-2.374.751-3.27 1.155-1.276 2.397-.371 3.668 1.282l1.061-4.376c.706.723 1.582 1.276 1.503 2.785-.2 1.393-.79 3.239-.354 3.889.648-.375 1.297-1.766 1.945-3.05l.928-2.254c.28.766.995 1.221.53 2.52-.41 2.09-1.103 4.715-.398 4.684 2.306-1.291 1.709-3.437 2.21-5.259 1.343.767 1.91 2.078 2.077 3.668l-1.9 3.536c.781 1.192 1.309 2.403.574 3.712l-1.281-.221-.752 1.37-3.049.398.751 1.458 2.298.884c.434 1.445.207 2.513-.176 3.491-.825 1.166-1.58 2.565-2.74 2.608-1.397.17-2.566-.23-3.492-1.238l-.84-1.767c-.736.963-1.473.813-2.21.75l-.706-3.048c-.555-.694-1.31-.785-1.547-2.431l1.458-3.403 2.078-1.945c1.408-.706 3.045-.841 4.684-.972z"
   ></path>
   <path
      fill="url(#pattern6566)"
      fillOpacity="1"
      fillRule="evenodd"
      stroke="red"
      strokeLinecap="butt"
      strokeLinejoin="miter"
      strokeWidth="0.291"
      d="M92.396 12.755l-2.917-2.74c-.283-1.98.384-2.375.751-3.27 1.155-1.277 2.397-.372 3.668 1.281l1.061-4.375c.706.723 1.582 1.276 1.503 2.784-.201 1.393-.79 3.24-.354 3.89.648-.376 1.296-1.766 1.945-3.05l.928-2.254c.28.766.995 1.22.53 2.519-.41 2.09-1.103 4.715-.398 4.684 2.306-1.291 1.709-3.436 2.21-5.259 1.343.767 1.91 2.078 2.077 3.668l-1.9 3.536c.781 1.192 1.309 2.404.574 3.712l-1.281-.22-.752 1.37-3.05.397.752 1.459 2.298.883c.434 1.446.207 2.514-.176 3.492-.825 1.166-1.58 2.564-2.74 2.607-1.397.17-2.566-.229-3.492-1.237l-.84-1.768c-.736.964-1.473.814-2.21.751l-.706-3.05c-.555-.693-1.31-.784-1.547-2.43l1.458-3.403 2.077-1.944c1.409-.707 3.046-.842 4.685-.973z"
      opacity="0.31"
   ></path>
   <path
      fill="#372c00"
      fillOpacity="1"
      fillRule="evenodd"
      stroke="none"
      strokeDashoffset="0"
      strokeLinecap="butt"
      strokeLinejoin="miter"
      strokeWidth="1.772"
      d="M42.464 83.66l-1.294.425c.842 2.246 1.4 3.75 1.788 6.172.389 2.42.883 2.702 1.092 2.902.529.767.972.424 1.139 1.402 1.55-.186 3.142-.554 4.661-.833.703-.129 2.064.035 2.62 1.47-.021.018-2.096-.965-3.114-.77-1.11.214-1.422.855-2.207.938-.974.103-2.296-.378-2.296-.378l2.1 1.57c1.872 1.399 5.448.17 8.966 1.498.505.185 1.434 2.129 1.629 2.386-.538-.211-2.16-1.156-3.04-1.107-.882.049-2.766.039-4.334-.429-1.568-.468-2.032-1.159-3.078-1.435l-2.462-.485c.673.43 1.95 1.128 2.805 2.456.7 1.088.78 2.52.764 3.14-.398-.254-2.485-3.315-3.323-3.58-.839-.266-.996-.575-1.365-1.43-.504-.067-.971-.313-1.404-.506-.122-.115-.257-.36-.572-.801l-.53-.742c-.397.406-1.054.717-1.375.88-.32.115-.883.346-1.765.823-.606.242-1.729 2.324-2.021 2.776.028-.245.409-2.602.584-2.828.826-1.064 1.362-1.66 2.196-1.914.834-.254 1.747-.28 2.026-.945.278-.665.67-1.134-.137-3.136-.807-2.002-1.47-4.722-1.951-7.393l-1.49-.56c.49 2.726.934 6.454 2.256 9.584.247.736.188 1.05-.782 1.391-.971.342-2.51.953-3.322 2.868-.813 1.915-.674 3.47-.534 4.199.14.728.252.894.466 1.018.213.124.283-.441.979-1.086.696-.644 1.258-.734 1.618-1.33a3.678 3.678 0 011.316-1.29c.51-.248.992-.458 1.481-.676.108.152.17.292.342.453.324.304.851.492 1.43.672.563.993 1.442 1.715 2.707 1.962 1.265.247 1.643 1.333 2.414 2.541l.61.958.778-.823c.83-.873.977-1.99.71-2.789-.18-.534-2.134-2.3-2.381-2.627.36.117 2.239 1.677 2.615 1.79 1.65.491 3.383.921 4.551.852 1.169-.068 1.986.39 3.146 1.093l1.576.955-.24-1.828c-.091-.694-.19-1.477-.582-2.24-.393-.764-1.125-1.452-2.897-1.636-1.515-.403-6.334-.901-7.151-1.164-.55-.492 2.775-.572 2.866-.581.092-.01 1.8.409 2.712 1.177.174-1.505-.664-2.702-1.667-3.457-.764-.575-1.889-.752-2.496-.637l-3.676.692c-.205-.512-.406-.933-.674-1.19-.395-.378-.867-.538-1.047-.794-.302-3.727-.995-5.65-1.736-7.623z"
      baselineShift="baseline"
      clipRule="nonzero"
      color="#000"
      colorInterpolation="sRGB"
      colorInterpolationFilters="linearRGB"
      colorRendering="auto"
      direction="ltr"
      display="inline"
      enableBackground="accumulate"
      fontFamily="sans-serif"
      fontSize="medium"
      fontStretch="normal"
      fontStyle="normal"
      fontVariant="normal"
      fontWeight="normal"
      imageRendering="auto"
      letterSpacing="normal"
      opacity="1"
      overflow="visible"
      shapeRendering="auto"
      textAnchor="start"
      textDecoration="none"
      textRendering="auto"
      visibility="visible"
      wordSpacing="normal"
      writingMode="lr-tb"
   ></path>
   <path
      fill="#2e0303"
      fillOpacity="1"
      fillRule="evenodd"
      stroke="none"
      strokeDashoffset="0"
      strokeLinecap="butt"
      strokeLinejoin="miter"
      strokeWidth="2.835"
      d="M8.796 6.706a4.689 4.689 0 00-1.994.361c-2.244 1.744-.466 3.364.315 5.196-1.892-.269-3.09.213-3.817 1.875-1.26.397-2.004 1.113-2.246 2.268-.34 1.625.936 2.652 1.97 3.664-.149.74-.327 1.477-.278 2.322.053.93.421 1.904 1.025 2.81-.124.573-.304 1.168-.205 2.012.092.788.577 1.587 1.25 2.324-1 1.148-1.424 1.597.344 2.614-.71.714-1.635 1.252-1.721 2.09-.1.971.158 2.01 1.613 2.609-1.376.825-1.774 1.776-1.855 3.17-.082 1.397 1.335 3.343 3.572 4.076-1.033 2.698.425 6.828 2.799 7.416-.825 2.439 1.091 4.09 2.51 5.486-.594 1.06-.204 2.12.45 2.84.802.88 2.508 1.141 3.916 1.371-.731 2.337-.276 4.722.856 5.858.692.693 2.162.4 3.017.66.059 1.379.764 3.006 1.917 4.201 1.418 1.47 3.173.915 4.975.633-.118 2.164 1.235 2.53 2.878 2.625 1.297 2.5 2.63 5.552 6.127 7.31.943 1.746 2.436 1.623 3.909 1.725 1.632.114 2.934.504 3.763-.709 1.1-1.129 1.305-2.235 1.649-2.875.848-.059 1.96.106 2.713-.326 1.387-1.016 1.92-2.293 2.9-3.483 1.49 1.49 2.8 3.485 4.72 3.703l.018.002c.006.001-1.336-.435.018.002 1.758.568 2.53.867 4.185.833.673-.014 2.572-.012 3.159-.555.586-.544 1.183-.666 1.482-1.69.355-1.217.24-2.606 0-3.724.55-1.298.984-2.952.893-5.131.738-.147 1.569-.683 2.209-.652 1.953.094 3.523-.652 4.798-1.356 1.247-.688 2.997-1.21 4.494-2.586 3.367-3.091 4.628-6.134 8.25-11.385 4.146-6.009 5.115-12.245 6.858-17.367 1.028-3.02 1.544-6.188 1.91-8.898.103-.762-.241-1.141.084-1.905-.354-.475-.702-1.05-.978-2.396l.345-1.525c.204-.9-2.086.211-.699 1.171.197 1.327-1.134 1.604-1.816 1.094-.456-.34.017-.952-.534-2.26-.102-.242-.672-1.08-.873-1.252-.17-.144-.383-1.144.508-1.578.812-.395 1.92-.187 2.184-.68.3-.558-1.532-2.516-.846-2.902.87-.49 2.462-1.282 3.246-1.267.834.015 1.289-.063 2.192.72l1.437 1.249c1.356 1.175 1.29-.028 1.008-.557-1.413-2.64-4.129-3.616-6.733-3.881-2.315-.236-4.558-.32-6.58.357-2.637.885-5.468 2.118-7.588 3.495-2.06 1.338-3.363 3.29-4.595 5.027-1.233 1.738-2.385 3.252-3.852 4.086-3.436 1.953-8.196 1.615-12.92 2.719-4.084.954-7.635 2.893-11.037 2.83-4.888-.092-9.903-.392-13.734-3.211-1.432-1.054-2.553-3.51-3.72-4.598-1.24-1.153-2.165-1.888-2.847-2.455-1.705-1.42-3.357-2.705-4.087-4.223-.918-1.906-2.408-3.048-3.791-3.728-2.178-1.07-3.619-2.695-5.4-4.086-1.203-.938-2.455-1.509-3.72-1.563zm.52 2.356c.616.054 1.317.486 1.9.931.62.474 1.713 1.365 2.188 1.885 1.221 1.338 2.82 1.922 4.008 2.6 1.188.678 2.349 1.702 2.921 2.892 1.142 2.374 2.768 3.524 4.493 4.721 1.813 1.259 2.586 2.6 3.605 4.293.485.806 2.408 2.275 3.518 2.87 4.917 2.631 8.754 3.43 14.093 3.53 4.425.083 8.197-1.458 11.735-2.285 4.107-.96 9.228-.485 13.676-3.013 2.157-1.227 3.516-3.155 4.763-4.912 1.247-1.758 2.275-3.563 3.518-4.74 1.73-1.64 4.254-2.755 6.441-3.634 1.273-.511 5.46-1.245 7.881-.623-1.624.078-3.744 1.373-4.67 2.739-.694 1.025-1.466 2.33-1.512 3.46-.033.829.351 1.64.553 2.268.171.531.71.816 1.33 1.211.151.618-.087 1.63.205 2.065.54.8 2.069 1.254 2.87.156.48 2.614-.766 6.85-2.143 10.773-1.929 5.495-3.923 11.033-7.647 16.43-3.732 5.41-4.9 8.215-7.834 10.908-.883.812-2.363 1.32-3.947 2.194-1.224.675-2.353 1.082-3.002 1.033-2.021-.155-3.588.947-5.222 2.02.65 2.265-.57 4.576-1.26 6.318.346.963.396 2.02.289 2.953-.064.553-.082 1.421-.352 1.724-.124.004-2.51-.04-3.37-.26-.964-.446-1.194-1.408-2.727-1.831-1.534-.424-2.599-1.467-2.12-2.567.48-1.1 1.64-2.567 2.752-3.2.568-.321 2.162 1.337 3.043 1.233 1.115-.13 2.831-2.824 2.584-3.218-.54-.861-2.015 1.798-2.748 1.865-1.088.099-2.304-2.04-3.187-1.494-2.42 1.496-2.67 2.74-3.596 2.666-.109-.01-1.708 1.183-2.181 1.902-.578.878-1.598.623-2.23 1.3-.157.71-.689 1.22-1.099 1.628-.998.399-1.237 1.494-2.265 1.451-1.257 1.96-2.378 3.867-3.934 3.762-1.512-.102-2.762-.76-3.318-2.022-3.137-1.588-4.127-4.656-5.531-7.283-3.01-.495-2.776-1.914-3.44-3.95-.959.505-3.646 1.153-4.623.857-1.93-.586-1.99-2.938-2.123-4.686-.747-.346-2.57-.218-3.087-.78-1.909-2.075-1.168-3.187-.155-5.314-1.58.044-3.676-.665-4.112-1.078-.61-.576-.434-1.267.172-1.592.922-.493 1.787-.918 2.442-1.607.808-.851 3.669-3.805 3.232-4.043-.436-.239-3.627 2.488-4.22 3.127-.367.394-.898.593-1.473.752-1.562-1.486-2.697-3.017-2.656-4.124.044-1.208.579-1.798.898-1.974 1.12-.619 3.55-1.315 3.375-1.719-.174-.404-3.025.276-3.851.725-.459.249-.957.747-1.415 1.252-1.515-1.256-2.709-2.737-1.71-4.969a11.913 11.913 0 001.65-.225c.993-.2 3.354-2.157 3.162-2.556-.192-.4-2.812 1.197-3.598 1.355-.653.131-2.439-.403-2.814-.639-1.206-.758-1.683-1.353-1.893-2.529-.08-.448.482-1.834 1.514-2.064.83.25 1.652.305 2.418.2 1.151-.156 3.769-1.378 3.658-1.747-.11-.37-3.075.609-3.924.724-.775.106-1.933-.281-2.681-.87-.55-.434-.909-1.127-.836-1.614.12-.804 1.7-1.248 2.365-1.314 1.094-.109 2.107.6 2.916.584 1.323-.027 2.676-1.538 2.611-1.805-.065-.267-1.431.422-2.863.455-.804.019-1.924-.362-2.898-.916-.924-.525-1.612-1.482-1.416-1.652 1.379.827 3.196.632 4.185.45.83-.151 2.934-1.37 2.752-1.632-.182-.263-2.456.54-3.178.498-1.72-.099-3.174-.602-4.521-1.584-.841-.613-.907-1.917-.895-2.035.787 1.054 2.62 1.145 3.12 1.209 1.059.135 4.292-.28 4.193-.733-.1-.452-3.288-.097-4.184-.41-1.623-.567-3.29-2.64-3.318-4.322.655.65 1.72 1.288 2.105 1.541.839.549 3.37.975 3.457.658.089-.317-2.239-1.258-2.88-1.69-.857-.575-1.833-1.208-2.213-1.751L3.113 17.48c-.342-.488-.756-1.852.754-1.858 1.43.574 2.882 1.028 3.931 1.952 1.838 1.616 3.1 3.374 3.47 5.515 1.181.475 2.494.736 3.665.74.758.003 2.928-.733 2.91-1.17-.018-.436-2.282.017-2.8.051-.454.03-1.828-.267-2.823-.578-.501-2.03-1.52-3.987-3.594-5.476-1.294-.93-2.456-1.535-3.572-1.942.886-.446 2.045-.727 3.112-.635 1.413.123 2.355 1.537 3.982 1.666.688 1.415 1.602 1.944 2.4 2.4 1.083.62 4.505.895 4.643.489.138-.405-3.317-.646-4.139-1.361-.834-.726-1.412-1.904-2.277-2.813-1.348-.025-2.717-.41-3.457-1.308-.94-1.142-1.867-2.646-.979-3.702.267-.317.607-.42.977-.388z"
      baselineShift="baseline"
      clipRule="nonzero"
      color="#000"
      colorInterpolation="sRGB"
      colorInterpolationFilters="linearRGB"
      colorRendering="auto"
      direction="ltr"
      display="inline"
      enableBackground="accumulate"
      fontFamily="sans-serif"
      fontSize="medium"
      fontStretch="normal"
      fontStyle="normal"
      fontVariant="normal"
      fontWeight="normal"
      imageRendering="auto"
      letterSpacing="normal"
      opacity="1"
      overflow="visible"
      shapeRendering="auto"
      textAnchor="start"
      textDecoration="none"
      textRendering="auto"
      visibility="visible"
      wordSpacing="normal"
      writingMode="lr-tb"
   ></path>
   <path
      fill="#280000"
      fillOpacity="1"
      fillRule="evenodd"
      stroke="none"
      strokeDashoffset="0"
      strokeLinecap="butt"
      strokeLinejoin="miter"
      strokeWidth="2.835"
      d="M43.058 33.398c-1.009-.043-3.33.322-6.48 1.533-4.201 1.615-8.971 2.963-11.397 6.246-.673.91-1.305 1.974-1.121 3.365.092.696.515 1.625 1.28 1.375 1.09-.357 1.507-.525 1.679-.463-.008.258-1.285 1.208-1.697 2.278-.219.567-.538 1.311.19 1.584.228.085 2.183-.431 2.411-.41.219.577.538 1.107 1.065 1.453.915.6 1.897.647 3.072.642 1.974-.008 4.21.265 6.553-.185 1.444-.278 2.933.581 4.78 1.9 1.845 1.32 3.893 3.05 6.608 3.295 1.02.092 5.598-2.942 5.364-3.586-.234-.644-5.324 1.954-5.446 1.943-1.557-.14-3.575-1.795-5.5-3.17-1.924-1.374-3.573-3.135-6.341-2.603-1.773.34-3.488.83-5.692.809-1.744-.017-1.913-.804-1.406-1.196.803-.621 1.673-.76 2.31-1.19.99-.666 1.802-1.438 3.022-2.446 2.495-2.061.938-1.663-.83-.764-1.332.677-2.091 1.433-3.024 2.015a8.29 8.29 0 01-1.677.792c-.171.059-.459.15-1.434.627-.974.477-2.972 1.622-2.953.837.016-.679 1.46-1.943 2.594-2.85 1.134-.906 1.541-1.343 2.443-1.864.559-.324 1.36-.761 2.49-.958 3.293-.57 1.75-.979.586-.955-3.397.071-3.276 1.34-5.55 2.317-.888.38-2.148.403-2.791.387-.238-1.152 1.054-2.28 1.41-2.76 1.65-2.235 5.524-3.907 9.54-5.451 4.017-1.544 6.605-2.028 6.497-2.383-.027-.089-.219-.15-.555-.164z"
      baselineShift="baseline"
      clipRule="nonzero"
      color="#000"
      colorInterpolation="sRGB"
      colorInterpolationFilters="linearRGB"
      colorRendering="auto"
      direction="ltr"
      display="inline"
      enableBackground="accumulate"
      fontFamily="sans-serif"
      fontSize="medium"
      fontStretch="normal"
      fontStyle="normal"
      fontVariant="normal"
      fontWeight="normal"
      imageRendering="auto"
      letterSpacing="normal"
      opacity="1"
      overflow="visible"
      shapeRendering="auto"
      textAnchor="start"
      textDecoration="none"
      textRendering="auto"
      visibility="visible"
      wordSpacing="normal"
      writingMode="lr-tb"
   ></path>
   <path
      fill="#401818"
      fillOpacity="1"
      fillRule="evenodd"
      stroke="none"
      strokeDashoffset="0"
      strokeLinecap="butt"
      strokeLinejoin="miter"
      strokeWidth="1.772"
      d="M57.416 30.78c-.275.235.657 1.682 1.227 2.135 1.432 1.14 2.252 1.48 3.968 1.25-.88.515-2.567 2.306-1.815 3.275 1.34 1.728 4.204.134 5.933.312-.844 1.103-2.343 3.617-1.43 3.921-.064 1.242 2.489.845 3.027.655-.445 1.123-.923 2.028-.26 2.87.778.985 2.05.34 3.624-.078-.744 1.383-.415 2.59.233 2.98.655.393 3.544-1.22 4.247-1.49.427 1.31.767 3.093 1.749 3.44 1.155.408 2.69-1.274 3.439-2.83.728 1.897-.23 3.704 1.14 3.989 1.44.299 1.45-1.09 2.638-2.408.982-1.087.834-1.94 1.513-3.638-1.552.96-3.058 3.643-3.558 3.95-.53.324-1.26-3.676-1.496-4.247-.875.686-2.324 3.164-3.244 3.009-.938-.158-.957-2.467-1.09-3.798-1.014.346-3.07 2.46-4.116 2.112-.857-.285.262-2.903 1.515-3.978-2.134.747-3.049 1.774-4.696 1.172-.777-.283.156-2.494.941-3.872-.616.498-2.597 1.222-3.881 1.139-1.285-.083.423-2.291.903-2.808.682-.675 1.386-1.328 2.078-1.993-2.334.11-5.42 1.782-7.013.053-1.014-1.1 2.103-2.254 1.73-2.734-.374-.48-2.258-.26-4.474-1.318-.508-.243-2.556-1.304-2.832-1.07z"
      baselineShift="baseline"
      clipRule="nonzero"
      color="#000"
      colorInterpolation="sRGB"
      colorInterpolationFilters="linearRGB"
      colorRendering="auto"
      direction="ltr"
      display="inline"
      enableBackground="accumulate"
      fontFamily="sans-serif"
      fontSize="medium"
      fontStretch="normal"
      fontStyle="normal"
      fontVariant="normal"
      fontWeight="normal"
      imageRendering="auto"
      letterSpacing="normal"
      opacity="1"
      overflow="visible"
      shapeRendering="auto"
      textAnchor="start"
      textDecoration="none"
      textRendering="auto"
      visibility="visible"
      wordSpacing="normal"
      writingMode="lr-tb"
   ></path>
   <path
      fill="maroon"
      fillOpacity="1"
      fillRule="evenodd"
      stroke="none"
      strokeDashoffset="0"
      strokeLinecap="butt"
      strokeLinejoin="miter"
      strokeWidth="1.772"
      d="M90.7 10.019c-.538-.688-.192-1.68.111-2.318.208-.436 1.108-.805 1.274-.686.166.12 1.006.798 1.113 1.073.213.55.267 1.941.267 1.941.594.053 1.852-3.854 2.066-5.342.643.872.377 2.625.177 3.441-.067.272-.314 2.075.172 2.69.682-.243 1.388-.78 1.856-1.623.157-.281 1.156-3.011 1.308-3.287.516.39-.105 2.805-.225 3.202-.258.852-.597 2.383.03 3.555.713-.208 1.453-.383 2.097-1.413.272-.434 1.084-2.174.918-3.33.83.938.673 1.74.252 3.084-.375 1.196-.91 1.967-1.365 2.95.68 1.14 1.248 1.682.286 3.108-.612.047-.768.418-1.034.853-.54-.146-1.118.198-1.95.503-.833.306-1.944.512-1.814 1.166.178.893.864 1.44 1.626 1.791.056.424-.124.559-.717.856-1.123.564-3.275 1.198-3.167 1.236.08.029 2.189-.376 3.5-.87.667-.251 1.02-.577 1.239-.903.226.068.445.124.646.172.49.774.336 2.226-.04 2.646-.382.43-1.157 1.79-1.602 1.988-1.15.513-2.58.484-3.234-.21-.587-.625-1.183-1.97-1.183-1.97l-.593.443s-.059.894.621 1.66c.68.766 1.954 2.269 3.25 2.27.877.001 1.75-.748 2.333-1.279.582-.531 1.189-1.367 1.524-2.042.495-.995.198-2.28.155-3.267-.064-.316-.27-.413-.848-.656-.727-.05-1.734-.908-1.984-1.202-.383-.45.236-.959.393-.983.907-.143 3.128 1.164 3.936.476.34-.29-1.198-1.143-1.033-1.54.332-.588.937-.125 1.365.06.238-.388.478-.775.569-1.236.397-2-.405-2.238-.764-2.944.606-.604 1.387-1.936 1.575-2.827.222-1.053-.032-2.982-1.518-4.227l-1.294-1.083c-.004.08.021 1.649-.405 3.102-.282.96-.515 1.417-1.356 2.42.14-.929 1.066-3.502.988-4.883-.02-.366-.525-1.682-1.307-2.547-.407.274-.448 1.486-.816 2.218-.659 1.314-1.375 2.447-1.656 3.043.097-.465.56-2.388.514-2.923-.064-.75-.406-2.119-1.084-2.758-.396-.373-1.027-1.255-1.568-1.195.096.786.07 1.512.017 2.224-.05.664-.308 1.623-.65 2.352-.287-.821-.931-1.356-1.55-1.47-1.01-.184-2.14.52-2.605 1.248-.464.727-.602 1.6-.57 2.43.024.662.536 1.473.886 1.925.35.452 1.11.83 1.521 1.187.823.713 1.57.808 1.57.808l1.048-.56s-.756-.523-1.358-.988c-1.15-.889-1.677-1.256-1.914-1.56z"
      baselineShift="baseline"
      clipRule="nonzero"
      color="#000"
      colorInterpolation="sRGB"
      colorInterpolationFilters="linearRGB"
      colorRendering="auto"
      direction="ltr"
      display="inline"
      enableBackground="accumulate"
      fontFamily="sans-serif"
      fontSize="medium"
      fontStretch="normal"
      fontStyle="normal"
      fontVariant="normal"
      fontWeight="normal"
      imageRendering="auto"
      letterSpacing="normal"
      opacity="1"
      overflow="visible"
      shapeRendering="auto"
      textAnchor="start"
      textDecoration="none"
      textRendering="auto"
      visibility="visible"
      wordSpacing="normal"
      writingMode="lr-tb"
   ></path>
   <path
      fill="#ffd723"
      fillOpacity="1"
      fillRule="evenodd"
      stroke="#f60"
      strokeLinecap="butt"
      strokeLinejoin="miter"
      strokeWidth="0.291"
      d="M96.62 19.734c.865.831 1.806 1.531 3.137 1.547l5.746 3.933c.526-.789.798-1.746.618-3.005-.87-1.543-2.108-2.994-3.447-4.42-.639-.35-1.32-.443-2.077-.088l-.177 1.37c-1.31-.427-2.606-.653-3.8.663z"
   ></path>
   <path
      fill="#b98b00"
      fillOpacity="1"
      fillRule="evenodd"
      stroke="none"
      strokeDashoffset="0"
      strokeLinecap="butt"
      strokeLinejoin="miter"
      strokeWidth="1.772"
      d="M101.481 16.26c.084.418-.396.517-.4.8-.223.042-.693-.107-1.044.911-.252-.16-.629-.063-1.168.164-1.285.54-1.149.381-2.065.72-.435.161-.895.346-.43 1.327.715 1.505 2.76 1.144 3.752 1.972l2.786 2.32c.894.745 1.953 1.086 3.015 1.113l.256-.93c.27-.977.473-1.677.346-2.466-.128-.79-.584-1.422-1.274-2.2l-2.474-2.79c-.416-.492-.82-1.021-1.3-.94zm2.926 4.33c.627.708.871 1.132.989 1.386.278.6.48 1.226.007 2.066 0 0-1.063-1.22-1.637-1.703-.781-.657-1.969-1.254-2.596-1.497-.432-.167-1.342-.63-1.934-.568-.625.064-1.162 0-1.244-.52.429-.185.892-.288 1.553-.173l1.15.294c.499.24.94.084 1.387-.035.572-.158-.556-.97-.877-1.184-.34-.678.646-.875 1.203-.336.764.453 1.352 1.54 2 2.27z"
      baselineShift="baseline"
      clipRule="nonzero"
      color="#000"
      colorInterpolation="sRGB"
      colorInterpolationFilters="linearRGB"
      colorRendering="auto"
      direction="ltr"
      display="inline"
      enableBackground="accumulate"
      fontFamily="sans-serif"
      fontSize="medium"
      fontStretch="normal"
      fontStyle="normal"
      fontVariant="normal"
      fontWeight="normal"
      imageRendering="auto"
      letterSpacing="normal"
      opacity="1"
      overflow="visible"
      shapeRendering="auto"
      textAnchor="start"
      textDecoration="none"
      textRendering="auto"
      visibility="visible"
      wordSpacing="normal"
      writingMode="lr-tb"
   ></path>
   <path
      fill="#422020"
      fillOpacity="1"
      stroke="#9e0000"
      strokeDashoffset="0"
      strokeLinecap="round"
      strokeLinejoin="round"
      strokeWidth="0.354"
      d="M96.444 18.364a1.552 1.552 0 01-2.169-2.221c.596-.602 1.565-.615 2.214.008.607.664.571 1.631-.045 2.213z"
      opacity="1"
   ></path>
   <path
      fill="#000"
      fillOpacity="1"
      stroke="#eee"
      strokeDashoffset="0"
      strokeLinecap="round"
      strokeLinejoin="round"
      strokeWidth="0.354"
      d="M96.117 17.935a.91.91 0 01-1.272-1.303c.35-.353.918-.36 1.299.005.356.39.335.957-.027 1.298z"
      opacity="1"
   ></path>
</g>
</svg>